<?xml version="1.0" encoding="UTF-8" standalone="no"?>
<!DOCTYPE svg PUBLIC "-//W3C//DTD SVG 1.1//EN"
 "http://www.w3.org/Graphics/SVG/1.1/DTD/svg11.dtd">
<!-- Generated by graphviz version 2.38.0 (20140413.2041)
 -->
<!-- Title: index Pages: 1 -->
<svg width="576pt" height="40pt"
 viewBox="0.00 0.00 576.00 39.84" xmlns="http://www.w3.org/2000/svg" xmlns:xlink="http://www.w3.org/1999/xlink">
<g id="graph0" class="graph" transform="scale(0.182741 0.182741) rotate(0) translate(4 214)">
<title>index</title>
<!-- 保障性 -->
<g id="node1" class="node"><title>保障性</title>
<polygon fill="none" stroke="black" points="214.5,-123 160.5,-123 160.5,-87 214.5,-87 214.5,-123"/>
<text text-anchor="middle" x="187.5" y="-101.9" font-family="FangSong" font-size="12.00">保障性</text>
</g>
<!-- 关键设备配置UPS -->
<g id="node2" class="node"><title>关键设备配置UPS</title>
<polygon fill="none" stroke="black" points="107,-36 0,-36 0,-0 107,-0 107,-36"/>
<text text-anchor="middle" x="53.5" y="-14.9" font-family="FangSong" font-size="12.00">关键设备配置UPS</text>
</g>
<!-- 保障性&#45;&gt;关键设备配置UPS -->
<g id="edge1" class="edge"><title>保障性&#45;&gt;关键设备配置UPS</title>
<path fill="none" stroke="black" d="M160.383,-86.799C139.859,-73.78 111.485,-55.7813 89.1288,-41.6003"/>
<polygon fill="black" stroke="black" points="90.8958,-38.5765 80.5766,-36.1754 87.1462,-44.4875 90.8958,-38.5765"/>
<text text-anchor="middle" x="141" y="-57.8" font-family="FangSong" font-size="14.00">0.6</text>
</g>
<!-- 关键部位标识与警示 -->
<g id="node27" class="node"><title>关键部位标识与警示</title>
<polygon fill="none" stroke="black" points="250,-36 125,-36 125,-0 250,-0 250,-36"/>
<text text-anchor="middle" x="187.5" y="-14.9" font-family="FangSong" font-size="12.00">关键部位标识与警示</text>
</g>
<!-- 保障性&#45;&gt;关键部位标识与警示 -->
<g id="edge25" class="edge"><title>保障性&#45;&gt;关键部位标识与警示</title>
<path fill="none" stroke="black" d="M187.5,-86.799C187.5,-75.1626 187.5,-59.5479 187.5,-46.2368"/>
<polygon fill="black" stroke="black" points="191,-46.1754 187.5,-36.1754 184,-46.1755 191,-46.1754"/>
<text text-anchor="middle" x="199" y="-57.8" font-family="FangSong" font-size="14.00">0.4</text>
</g>
<!-- 服务器设备指标体系 -->
<g id="node3" class="node"><title>服务器设备指标体系</title>
<polygon fill="none" stroke="black" points="1389,-210 1264,-210 1264,-174 1389,-174 1389,-210"/>
<text text-anchor="middle" x="1326.5" y="-188.9" font-family="FangSong" font-size="12.00">服务器设备指标体系</text>
</g>
<!-- 服务器设备指标体系&#45;&gt;保障性 -->
<g id="edge14" class="edge"><title>服务器设备指标体系&#45;&gt;保障性</title>
<path fill="none" stroke="black" d="M1263.97,-187.088C1165.7,-180.88 969.13,-168.222 802.5,-156 618.853,-142.53 573.024,-138.055 389.5,-123 332.026,-118.285 265.37,-112.641 224.832,-109.189"/>
<polygon fill="black" stroke="black" points="224.877,-105.681 214.616,-108.319 224.282,-112.655 224.877,-105.681"/>
<text text-anchor="middle" x="814" y="-144.8" font-family="FangSong" font-size="14.00">0.2</text>
</g>
<!-- 环境适应性 -->
<g id="node4" class="node"><title>环境适应性</title>
<polygon fill="none" stroke="black" points="476,-123 399,-123 399,-87 476,-87 476,-123"/>
<text text-anchor="middle" x="437.5" y="-101.9" font-family="FangSong" font-size="12.00">环境适应性</text>
</g>
<!-- 服务器设备指标体系&#45;&gt;环境适应性 -->
<g id="edge2" class="edge"><title>服务器设备指标体系&#45;&gt;环境适应性</title>
<path fill="none" stroke="black" d="M1263.99,-185.023C1096.09,-168.97 637.851,-125.156 486.639,-110.698"/>
<polygon fill="black" stroke="black" points="486.579,-107.177 476.291,-109.709 485.912,-114.145 486.579,-107.177"/>
<text text-anchor="middle" x="947" y="-144.8" font-family="FangSong" font-size="14.00">0.1</text>
</g>
<!-- 可维护性 -->
<g id="node6" class="node"><title>可维护性</title>
<polygon fill="none" stroke="black" points="851,-123 786,-123 786,-87 851,-87 851,-123"/>
<text text-anchor="middle" x="818.5" y="-101.9" font-family="FangSong" font-size="12.00">可维护性</text>
</g>
<!-- 服务器设备指标体系&#45;&gt;可维护性 -->
<g id="edge20" class="edge"><title>服务器设备指标体系&#45;&gt;可维护性</title>
<path fill="none" stroke="black" d="M1263.95,-180.535C1159.24,-163.013 951.091,-128.185 861.334,-113.167"/>
<polygon fill="black" stroke="black" points="861.683,-109.677 851.243,-111.479 860.528,-116.581 861.683,-109.677"/>
<text text-anchor="middle" x="1115" y="-144.8" font-family="FangSong" font-size="14.00">0.1</text>
</g>
<!-- 可靠性 -->
<g id="node8" class="node"><title>可靠性</title>
<polygon fill="none" stroke="black" points="1208.5,-123 1154.5,-123 1154.5,-87 1208.5,-87 1208.5,-123"/>
<text text-anchor="middle" x="1181.5" y="-101.9" font-family="FangSong" font-size="12.00">可靠性</text>
</g>
<!-- 服务器设备指标体系&#45;&gt;可靠性 -->
<g id="edge28" class="edge"><title>服务器设备指标体系&#45;&gt;可靠性</title>
<path fill="none" stroke="black" d="M1297.16,-173.799C1274.16,-160.319 1242.06,-141.501 1217.51,-127.109"/>
<polygon fill="black" stroke="black" points="1219.23,-124.063 1208.84,-122.025 1215.69,-130.102 1219.23,-124.063"/>
<text text-anchor="middle" x="1275" y="-144.8" font-family="FangSong" font-size="14.00">0.2</text>
</g>
<!-- 安全性 -->
<g id="node10" class="node"><title>安全性</title>
<polygon fill="none" stroke="black" points="1500.5,-123 1446.5,-123 1446.5,-87 1500.5,-87 1500.5,-123"/>
<text text-anchor="middle" x="1473.5" y="-101.9" font-family="FangSong" font-size="12.00">安全性</text>
</g>
<!-- 服务器设备指标体系&#45;&gt;安全性 -->
<g id="edge17" class="edge"><title>服务器设备指标体系&#45;&gt;安全性</title>
<path fill="none" stroke="black" d="M1356.25,-173.799C1379.71,-160.233 1412.52,-141.259 1437.47,-126.833"/>
<polygon fill="black" stroke="black" points="1439.37,-129.778 1446.28,-121.742 1435.87,-123.718 1439.37,-129.778"/>
<text text-anchor="middle" x="1421" y="-144.8" font-family="FangSong" font-size="14.00">0.1</text>
</g>
<!-- 可扩展性 -->
<g id="node12" class="node"><title>可扩展性</title>
<polygon fill="none" stroke="black" points="2203,-123 2138,-123 2138,-87 2203,-87 2203,-123"/>
<text text-anchor="middle" x="2170.5" y="-101.9" font-family="FangSong" font-size="12.00">可扩展性</text>
</g>
<!-- 服务器设备指标体系&#45;&gt;可扩展性 -->
<g id="edge24" class="edge"><title>服务器设备指标体系&#45;&gt;可扩展性</title>
<path fill="none" stroke="black" d="M1389.25,-184.681C1552.7,-168.219 1988.53,-124.326 2127.37,-110.343"/>
<polygon fill="black" stroke="black" points="2128.01,-113.797 2137.61,-109.312 2127.31,-106.832 2128.01,-113.797"/>
<text text-anchor="middle" x="1811" y="-144.8" font-family="FangSong" font-size="14.00">0.1</text>
</g>
<!-- 完整性 -->
<g id="node14" class="node"><title>完整性</title>
<polygon fill="none" stroke="black" points="2751.5,-123 2697.5,-123 2697.5,-87 2751.5,-87 2751.5,-123"/>
<text text-anchor="middle" x="2724.5" y="-101.9" font-family="FangSong" font-size="12.00">完整性</text>
</g>
<!-- 服务器设备指标体系&#45;&gt;完整性 -->
<g id="edge12" class="edge"><title>服务器设备指标体系&#45;&gt;完整性</title>
<path fill="none" stroke="black" d="M1389.29,-187.183C1630.97,-172.488 2497.2,-119.82 2687.4,-108.256"/>
<polygon fill="black" stroke="black" points="2687.69,-111.745 2697.46,-107.644 2687.26,-104.758 2687.69,-111.745"/>
<text text-anchor="middle" x="2121" y="-144.8" font-family="FangSong" font-size="14.00">0.1</text>
</g>
<!-- 易用性 -->
<g id="node16" class="node"><title>易用性</title>
<polygon fill="none" stroke="black" points="3037.5,-123 2983.5,-123 2983.5,-87 3037.5,-87 3037.5,-123"/>
<text text-anchor="middle" x="3010.5" y="-101.9" font-family="FangSong" font-size="12.00">易用性</text>
</g>
<!-- 服务器设备指标体系&#45;&gt;易用性 -->
<g id="edge9" class="edge"><title>服务器设备指标体系&#45;&gt;易用性</title>
<path fill="none" stroke="black" d="M1389.08,-188.613C1589.01,-180.864 2230.28,-155.046 2760.5,-123 2835.95,-118.44 2924.14,-112.239 2973.03,-108.725"/>
<polygon fill="black" stroke="black" points="2973.41,-112.206 2983.13,-107.996 2972.91,-105.224 2973.41,-112.206"/>
<text text-anchor="middle" x="2419" y="-144.8" font-family="FangSong" font-size="14.00">0.1</text>
</g>
<!-- 温或湿度适应性 -->
<g id="node5" class="node"><title>温或湿度适应性</title>
<polygon fill="none" stroke="black" points="369,-36 268,-36 268,-0 369,-0 369,-36"/>
<text text-anchor="middle" x="318.5" y="-14.9" font-family="FangSong" font-size="12.00">温或湿度适应性</text>
</g>
<!-- 环境适应性&#45;&gt;温或湿度适应性 -->
<g id="edge3" class="edge"><title>环境适应性&#45;&gt;温或湿度适应性</title>
<path fill="none" stroke="black" d="M413.419,-86.799C395.434,-73.9529 370.662,-56.2583 350.934,-42.1671"/>
<polygon fill="black" stroke="black" points="352.717,-39.1398 342.546,-36.1754 348.649,-44.8359 352.717,-39.1398"/>
<text text-anchor="middle" x="397" y="-57.8" font-family="FangSong" font-size="14.00">0.4</text>
</g>
<!-- 电磁环境适应性 -->
<g id="node28" class="node"><title>电磁环境适应性</title>
<polygon fill="none" stroke="black" points="488,-36 387,-36 387,-0 488,-0 488,-36"/>
<text text-anchor="middle" x="437.5" y="-14.9" font-family="FangSong" font-size="12.00">电磁环境适应性</text>
</g>
<!-- 环境适应性&#45;&gt;电磁环境适应性 -->
<g id="edge26" class="edge"><title>环境适应性&#45;&gt;电磁环境适应性</title>
<path fill="none" stroke="black" d="M437.5,-86.799C437.5,-75.1626 437.5,-59.5479 437.5,-46.2368"/>
<polygon fill="black" stroke="black" points="441,-46.1754 437.5,-36.1754 434,-46.1755 441,-46.1754"/>
<text text-anchor="middle" x="449" y="-57.8" font-family="FangSong" font-size="14.00">0.6</text>
</g>
<!-- 板卡芯片通用性 -->
<g id="node7" class="node"><title>板卡芯片通用性</title>
<polygon fill="none" stroke="black" points="607,-36 506,-36 506,-0 607,-0 607,-36"/>
<text text-anchor="middle" x="556.5" y="-14.9" font-family="FangSong" font-size="12.00">板卡芯片通用性</text>
</g>
<!-- 可维护性&#45;&gt;板卡芯片通用性 -->
<g id="edge4" class="edge"><title>可维护性&#45;&gt;板卡芯片通用性</title>
<path fill="none" stroke="black" d="M785.847,-93.4066C743.619,-79.7066 669.261,-55.5828 616.675,-38.5223"/>
<polygon fill="black" stroke="black" points="617.714,-35.1799 607.122,-35.4231 615.554,-41.8383 617.714,-35.1799"/>
<text text-anchor="middle" x="715" y="-57.8" font-family="FangSong" font-size="14.00">0.2</text>
</g>
<!-- 预留关键测试节点 -->
<g id="node19" class="node"><title>预留关键测试节点</title>
<polygon fill="none" stroke="black" points="738,-36 625,-36 625,-0 738,-0 738,-36"/>
<text text-anchor="middle" x="681.5" y="-14.9" font-family="FangSong" font-size="12.00">预留关键测试节点</text>
</g>
<!-- 可维护性&#45;&gt;预留关键测试节点 -->
<g id="edge13" class="edge"><title>可维护性&#45;&gt;预留关键测试节点</title>
<path fill="none" stroke="black" d="M790.776,-86.799C769.793,-73.78 740.783,-55.7813 717.926,-41.6003"/>
<polygon fill="black" stroke="black" points="719.525,-38.4735 709.183,-36.1754 715.835,-44.4216 719.525,-38.4735"/>
<text text-anchor="middle" x="770" y="-57.8" font-family="FangSong" font-size="14.00">0.1</text>
</g>
<!-- 系统崩溃记录与恢复 -->
<g id="node26" class="node"><title>系统崩溃记录与恢复</title>
<polygon fill="none" stroke="black" points="881,-36 756,-36 756,-0 881,-0 881,-36"/>
<text text-anchor="middle" x="818.5" y="-14.9" font-family="FangSong" font-size="12.00">系统崩溃记录与恢复</text>
</g>
<!-- 可维护性&#45;&gt;系统崩溃记录与恢复 -->
<g id="edge23" class="edge"><title>可维护性&#45;&gt;系统崩溃记录与恢复</title>
<path fill="none" stroke="black" d="M818.5,-86.799C818.5,-75.1626 818.5,-59.5479 818.5,-46.2368"/>
<polygon fill="black" stroke="black" points="822,-46.1754 818.5,-36.1754 815,-46.1755 822,-46.1754"/>
<text text-anchor="middle" x="830" y="-57.8" font-family="FangSong" font-size="14.00">0.3</text>
</g>
<!-- 设备模块化设计 -->
<g id="node30" class="node"><title>设备模块化设计</title>
<polygon fill="none" stroke="black" points="1000,-36 899,-36 899,-0 1000,-0 1000,-36"/>
<text text-anchor="middle" x="949.5" y="-14.9" font-family="FangSong" font-size="12.00">设备模块化设计</text>
</g>
<!-- 可维护性&#45;&gt;设备模块化设计 -->
<g id="edge29" class="edge"><title>可维护性&#45;&gt;设备模块化设计</title>
<path fill="none" stroke="black" d="M845.01,-86.799C864.986,-73.8376 892.568,-55.9405 914.378,-41.7888"/>
<polygon fill="black" stroke="black" points="916.546,-44.5547 923.03,-36.1754 912.736,-38.6825 916.546,-44.5547"/>
<text text-anchor="middle" x="904" y="-57.8" font-family="FangSong" font-size="14.00">0.4</text>
</g>
<!-- 平均无故障时间 -->
<g id="node9" class="node"><title>平均无故障时间</title>
<polygon fill="none" stroke="black" points="1119,-36 1018,-36 1018,-0 1119,-0 1119,-36"/>
<text text-anchor="middle" x="1068.5" y="-14.9" font-family="FangSong" font-size="12.00">平均无故障时间</text>
</g>
<!-- 可靠性&#45;&gt;平均无故障时间 -->
<g id="edge5" class="edge"><title>可靠性&#45;&gt;平均无故障时间</title>
<path fill="none" stroke="black" d="M1158.63,-86.799C1141.63,-74.0105 1118.24,-56.4169 1099.55,-42.3569"/>
<polygon fill="black" stroke="black" points="1101.43,-39.3898 1091.33,-36.1754 1097.22,-44.9838 1101.43,-39.3898"/>
<text text-anchor="middle" x="1144" y="-57.8" font-family="FangSong" font-size="14.00">0.6</text>
</g>
<!-- 平均修复时间 -->
<g id="node31" class="node"><title>平均修复时间</title>
<polygon fill="none" stroke="black" points="1226,-36 1137,-36 1137,-0 1226,-0 1226,-36"/>
<text text-anchor="middle" x="1181.5" y="-14.9" font-family="FangSong" font-size="12.00">平均修复时间</text>
</g>
<!-- 可靠性&#45;&gt;平均修复时间 -->
<g id="edge30" class="edge"><title>可靠性&#45;&gt;平均修复时间</title>
<path fill="none" stroke="black" d="M1181.5,-86.799C1181.5,-75.1626 1181.5,-59.5479 1181.5,-46.2368"/>
<polygon fill="black" stroke="black" points="1185,-46.1754 1181.5,-36.1754 1178,-46.1755 1185,-46.1754"/>
<text text-anchor="middle" x="1193" y="-57.8" font-family="FangSong" font-size="14.00">0.4</text>
</g>
<!-- 存储设备或单元访问控制 -->
<g id="node11" class="node"><title>存储设备或单元访问控制</title>
<polygon fill="none" stroke="black" points="1393,-36 1244,-36 1244,-0 1393,-0 1393,-36"/>
<text text-anchor="middle" x="1318.5" y="-14.9" font-family="FangSong" font-size="12.00">存储设备或单元访问控制</text>
</g>
<!-- 安全性&#45;&gt;存储设备或单元访问控制 -->
<g id="edge6" class="edge"><title>安全性&#45;&gt;存储设备或单元访问控制</title>
<path fill="none" stroke="black" d="M1446.15,-88.9994C1421.86,-75.6826 1386.07,-56.0532 1358.56,-40.9672"/>
<polygon fill="black" stroke="black" points="1360.03,-37.7805 1349.57,-36.0409 1356.66,-43.9182 1360.03,-37.7805"/>
<text text-anchor="middle" x="1417" y="-57.8" font-family="FangSong" font-size="14.00">0.2</text>
</g>
<!-- 接口或无线开关关闭 -->
<g id="node21" class="node"><title>接口或无线开关关闭</title>
<polygon fill="none" stroke="black" points="1536,-36 1411,-36 1411,-0 1536,-0 1536,-36"/>
<text text-anchor="middle" x="1473.5" y="-14.9" font-family="FangSong" font-size="12.00">接口或无线开关关闭</text>
</g>
<!-- 安全性&#45;&gt;接口或无线开关关闭 -->
<g id="edge16" class="edge"><title>安全性&#45;&gt;接口或无线开关关闭</title>
<path fill="none" stroke="black" d="M1473.5,-86.799C1473.5,-75.1626 1473.5,-59.5479 1473.5,-46.2368"/>
<polygon fill="black" stroke="black" points="1477,-46.1754 1473.5,-36.1754 1470,-46.1755 1477,-46.1754"/>
<text text-anchor="middle" x="1485" y="-57.8" font-family="FangSong" font-size="14.00">0.1</text>
</g>
<!-- 重要设备接口访问限制 -->
<g id="node29" class="node"><title>重要设备接口访问限制</title>
<polygon fill="none" stroke="black" points="1691,-36 1554,-36 1554,-0 1691,-0 1691,-36"/>
<text text-anchor="middle" x="1622.5" y="-14.9" font-family="FangSong" font-size="12.00">重要设备接口访问限制</text>
</g>
<!-- 安全性&#45;&gt;重要设备接口访问限制 -->
<g id="edge27" class="edge"><title>安全性&#45;&gt;重要设备接口访问限制</title>
<path fill="none" stroke="black" d="M1500.83,-88.4097C1524.05,-75.1621 1557.66,-55.9886 1583.67,-41.1487"/>
<polygon fill="black" stroke="black" points="1585.58,-44.0924 1592.53,-36.0972 1582.11,-38.0122 1585.58,-44.0924"/>
<text text-anchor="middle" x="1569" y="-57.8" font-family="FangSong" font-size="14.00">0.2</text>
</g>
<!-- 系统访问控制与身份识别 -->
<g id="node32" class="node"><title>系统访问控制与身份识别</title>
<polygon fill="none" stroke="black" points="1858,-36 1709,-36 1709,-0 1858,-0 1858,-36"/>
<text text-anchor="middle" x="1783.5" y="-14.9" font-family="FangSong" font-size="12.00">系统访问控制与身份识别</text>
</g>
<!-- 安全性&#45;&gt;系统访问控制与身份识别 -->
<g id="edge31" class="edge"><title>安全性&#45;&gt;系统访问控制与身份识别</title>
<path fill="none" stroke="black" d="M1500.74,-96.5313C1547.49,-83.7122 1644.46,-57.1235 1711.72,-38.6821"/>
<polygon fill="black" stroke="black" points="1712.7,-42.0428 1721.42,-36.023 1710.85,-35.292 1712.7,-42.0428"/>
<text text-anchor="middle" x="1659" y="-57.8" font-family="FangSong" font-size="14.00">0.5</text>
</g>
<!-- 软件插件化开发与功能扩展 -->
<g id="node13" class="node"><title>软件插件化开发与功能扩展</title>
<polygon fill="none" stroke="black" points="2037,-36 1876,-36 1876,-0 2037,-0 2037,-36"/>
<text text-anchor="middle" x="1956.5" y="-14.9" font-family="FangSong" font-size="12.00">软件插件化开发与功能扩展</text>
</g>
<!-- 可扩展性&#45;&gt;软件插件化开发与功能扩展 -->
<g id="edge7" class="edge"><title>可扩展性&#45;&gt;软件插件化开发与功能扩展</title>
<path fill="none" stroke="black" d="M2138,-91.0903C2103.79,-77.5038 2049.42,-55.9077 2009.1,-39.8907"/>
<polygon fill="black" stroke="black" points="2010.27,-36.5918 1999.69,-36.1531 2007.69,-43.0974 2010.27,-36.5918"/>
<text text-anchor="middle" x="2088" y="-57.8" font-family="FangSong" font-size="14.00">0.2</text>
</g>
<!-- 通信协议配置 -->
<g id="node20" class="node"><title>通信协议配置</title>
<polygon fill="none" stroke="black" points="2144,-36 2055,-36 2055,-0 2144,-0 2144,-36"/>
<text text-anchor="middle" x="2099.5" y="-14.9" font-family="FangSong" font-size="12.00">通信协议配置</text>
</g>
<!-- 可扩展性&#45;&gt;通信协议配置 -->
<g id="edge15" class="edge"><title>可扩展性&#45;&gt;通信协议配置</title>
<path fill="none" stroke="black" d="M2156.13,-86.799C2145.83,-74.4713 2131.81,-57.6787 2120.29,-43.8902"/>
<polygon fill="black" stroke="black" points="2122.94,-41.6065 2113.85,-36.1754 2117.57,-46.094 2122.94,-41.6065"/>
<text text-anchor="middle" x="2151" y="-57.8" font-family="FangSong" font-size="14.00">0.1</text>
</g>
<!-- 操作系统支持的硬件扩展性 -->
<g id="node22" class="node"><title>操作系统支持的硬件扩展性</title>
<polygon fill="none" stroke="black" points="2323,-36 2162,-36 2162,-0 2323,-0 2323,-36"/>
<text text-anchor="middle" x="2242.5" y="-14.9" font-family="FangSong" font-size="12.00">操作系统支持的硬件扩展性</text>
</g>
<!-- 可扩展性&#45;&gt;操作系统支持的硬件扩展性 -->
<g id="edge18" class="edge"><title>可扩展性&#45;&gt;操作系统支持的硬件扩展性</title>
<path fill="none" stroke="black" d="M2185.07,-86.799C2195.51,-74.4713 2209.74,-57.6787 2221.42,-43.8902"/>
<polygon fill="black" stroke="black" points="2224.16,-46.0681 2227.95,-36.1754 2218.82,-41.5437 2224.16,-46.0681"/>
<text text-anchor="middle" x="2223" y="-57.8" font-family="FangSong" font-size="14.00">0.3</text>
</g>
<!-- 板卡硬件资源扩展能力 -->
<g id="node25" class="node"><title>板卡硬件资源扩展能力</title>
<polygon fill="none" stroke="black" points="2478,-36 2341,-36 2341,-0 2478,-0 2478,-36"/>
<text text-anchor="middle" x="2409.5" y="-14.9" font-family="FangSong" font-size="12.00">板卡硬件资源扩展能力</text>
</g>
<!-- 可扩展性&#45;&gt;板卡硬件资源扩展能力 -->
<g id="edge22" class="edge"><title>可扩展性&#45;&gt;板卡硬件资源扩展能力</title>
<path fill="none" stroke="black" d="M2203.23,-92.3593C2241.42,-78.7759 2305.27,-56.0678 2351.84,-39.5081"/>
<polygon fill="black" stroke="black" points="2353.25,-42.7218 2361.49,-36.0732 2350.9,-36.1265 2353.25,-42.7218"/>
<text text-anchor="middle" x="2316" y="-57.8" font-family="FangSong" font-size="14.00">0.3</text>
</g>
<!-- 接口类型和数量 -->
<g id="node33" class="node"><title>接口类型和数量</title>
<polygon fill="none" stroke="black" points="2597,-36 2496,-36 2496,-0 2597,-0 2597,-36"/>
<text text-anchor="middle" x="2546.5" y="-14.9" font-family="FangSong" font-size="12.00">接口类型和数量</text>
</g>
<!-- 可扩展性&#45;&gt;接口类型和数量 -->
<g id="edge32" class="edge"><title>可扩展性&#45;&gt;接口类型和数量</title>
<path fill="none" stroke="black" d="M2203.41,-97.641C2259.35,-86.6769 2376.71,-62.9987 2485.96,-36.0539"/>
<polygon fill="black" stroke="black" points="2486.96,-39.4109 2495.82,-33.6056 2485.27,-32.617 2486.96,-39.4109"/>
<text text-anchor="middle" x="2421" y="-57.8" font-family="FangSong" font-size="14.00">0.1</text>
</g>
<!-- 开发流程完整性 -->
<g id="node15" class="node"><title>开发流程完整性</title>
<polygon fill="none" stroke="black" points="2716,-36 2615,-36 2615,-0 2716,-0 2716,-36"/>
<text text-anchor="middle" x="2665.5" y="-14.9" font-family="FangSong" font-size="12.00">开发流程完整性</text>
</g>
<!-- 完整性&#45;&gt;开发流程完整性 -->
<g id="edge8" class="edge"><title>完整性&#45;&gt;开发流程完整性</title>
<path fill="none" stroke="black" d="M2712.56,-86.799C2704.16,-74.7017 2692.78,-58.3049 2683.32,-44.6665"/>
<polygon fill="black" stroke="black" points="2686,-42.3946 2677.42,-36.1754 2680.25,-46.3862 2686,-42.3946"/>
<text text-anchor="middle" x="2711" y="-57.8" font-family="FangSong" font-size="14.00">0.3</text>
</g>
<!-- 软件测试完整性 -->
<g id="node18" class="node"><title>软件测试完整性</title>
<polygon fill="none" stroke="black" points="2835,-36 2734,-36 2734,-0 2835,-0 2835,-36"/>
<text text-anchor="middle" x="2784.5" y="-14.9" font-family="FangSong" font-size="12.00">软件测试完整性</text>
</g>
<!-- 完整性&#45;&gt;软件测试完整性 -->
<g id="edge11" class="edge"><title>完整性&#45;&gt;软件测试完整性</title>
<path fill="none" stroke="black" d="M2736.64,-86.799C2745.18,-74.7017 2756.76,-58.3049 2766.38,-44.6665"/>
<polygon fill="black" stroke="black" points="2769.47,-46.3635 2772.38,-36.1754 2763.75,-42.3267 2769.47,-46.3635"/>
<text text-anchor="middle" x="2770" y="-57.8" font-family="FangSong" font-size="14.00">0.5</text>
</g>
<!-- 技术文档完整性 -->
<g id="node23" class="node"><title>技术文档完整性</title>
<polygon fill="none" stroke="black" points="2954,-36 2853,-36 2853,-0 2954,-0 2954,-36"/>
<text text-anchor="middle" x="2903.5" y="-14.9" font-family="FangSong" font-size="12.00">技术文档完整性</text>
</g>
<!-- 完整性&#45;&gt;技术文档完整性 -->
<g id="edge19" class="edge"><title>完整性&#45;&gt;技术文档完整性</title>
<path fill="none" stroke="black" d="M2751.69,-91.0903C2779.94,-77.6757 2824.63,-56.4531 2858.22,-40.5016"/>
<polygon fill="black" stroke="black" points="2859.85,-43.6043 2867.38,-36.1531 2856.84,-37.281 2859.85,-43.6043"/>
<text text-anchor="middle" x="2837" y="-57.8" font-family="FangSong" font-size="14.00">0.2</text>
</g>
<!-- 硬件易用性 -->
<g id="node17" class="node"><title>硬件易用性</title>
<polygon fill="none" stroke="black" points="3049,-36 2972,-36 2972,-0 3049,-0 3049,-36"/>
<text text-anchor="middle" x="3010.5" y="-14.9" font-family="FangSong" font-size="12.00">硬件易用性</text>
</g>
<!-- 易用性&#45;&gt;硬件易用性 -->
<g id="edge10" class="edge"><title>易用性&#45;&gt;硬件易用性</title>
<path fill="none" stroke="black" d="M3010.5,-86.799C3010.5,-75.1626 3010.5,-59.5479 3010.5,-46.2368"/>
<polygon fill="black" stroke="black" points="3014,-46.1754 3010.5,-36.1754 3007,-46.1755 3014,-46.1754"/>
<text text-anchor="middle" x="3022" y="-57.8" font-family="FangSong" font-size="14.00">0.5</text>
</g>
<!-- 软件易用性 -->
<g id="node24" class="node"><title>软件易用性</title>
<polygon fill="none" stroke="black" points="3144,-36 3067,-36 3067,-0 3144,-0 3144,-36"/>
<text text-anchor="middle" x="3105.5" y="-14.9" font-family="FangSong" font-size="12.00">软件易用性</text>
</g>
<!-- 易用性&#45;&gt;软件易用性 -->
<g id="edge21" class="edge"><title>易用性&#45;&gt;软件易用性</title>
<path fill="none" stroke="black" d="M3029.72,-86.799C3043.76,-74.2409 3062.97,-57.0493 3078.54,-43.1202"/>
<polygon fill="black" stroke="black" points="3081.19,-45.4518 3086.3,-36.1754 3076.52,-40.2351 3081.19,-45.4518"/>
<text text-anchor="middle" x="3076" y="-57.8" font-family="FangSong" font-size="14.00">0.5</text>
</g>
</g>
</svg>
