<?xml version="1.0" encoding="UTF-8" standalone="no"?>
<!DOCTYPE svg PUBLIC "-//W3C//DTD SVG 1.1//EN"
 "http://www.w3.org/Graphics/SVG/1.1/DTD/svg11.dtd">
<!-- Generated by graphviz version 2.38.0 (20140413.2041)
 -->
<!-- Title: qing Pages: 1 -->
<svg width="576pt" height="197pt"
 viewBox="0.00 0.00 576.00 196.77" xmlns="http://www.w3.org/2000/svg" xmlns:xlink="http://www.w3.org/1999/xlink">
<g id="graph0" class="graph" transform="scale(0.385828 0.385828) rotate(0) translate(4 506)">
<title>qing</title>
<!-- 湿度传感器A -->
<g id="node1" class="node"><title>湿度传感器A</title>
<ellipse fill="#2e8b57" stroke="#2e8b57" cx="494.759" cy="-484" rx="51.1876" ry="18"/>
<text text-anchor="middle" x="494.759" y="-480.9" font-family="FangSong" font-size="12.00">湿度传感器A</text>
</g>
<!-- 数据采集箱A -->
<g id="node2" class="node"><title>数据采集箱A</title>
<ellipse fill="#2e8b57" stroke="#2e8b57" cx="753.334" cy="-338" rx="51.1876" ry="18"/>
<text text-anchor="middle" x="753.334" y="-334.9" font-family="FangSong" font-size="12.00">数据采集箱A</text>
</g>
<!-- 湿度传感器A&#45;&gt;数据采集箱A -->
<g id="edge1" class="edge"><title>湿度传感器A&#45;&gt;数据采集箱A</title>
<path fill="none" stroke="brown" d="M545.375,-481.239C585.873,-476.859 642.948,-465.635 684.24,-437 710.189,-419.005 729.259,-387.676 740.512,-365.074"/>
<polygon fill="brown" stroke="brown" points="743.701,-366.518 744.854,-355.986 737.385,-363.501 743.701,-366.518"/>
<text text-anchor="middle" x="627.74" y="-480.8" font-family="FangSong" font-size="14.00">I1 (3,30) /150</text>
</g>
<!-- 服务器A -->
<g id="node6" class="node"><title>服务器A</title>
<ellipse fill="#2e8b57" stroke="#2e8b57" cx="1004.52" cy="-243" rx="36.1402" ry="18"/>
<text text-anchor="middle" x="1004.52" y="-239.9" font-family="FangSong" font-size="12.00">服务器A</text>
</g>
<!-- 数据采集箱A&#45;&gt;服务器A -->
<g id="edge5" class="edge"><title>数据采集箱A&#45;&gt;服务器A</title>
<path fill="none" stroke="skyblue" d="M788.721,-324.89C835.186,-307.176 917.729,-275.707 965.835,-257.368"/>
<polygon fill="skyblue" stroke="skyblue" points="967.167,-260.606 975.264,-253.773 964.673,-254.065 967.167,-260.606"/>
<text text-anchor="middle" x="878.928" y="-312.8" font-family="FangSong" font-size="14.00">I5 (3,60) /200</text>
</g>
<!-- 湿度传感器B -->
<g id="node3" class="node"><title>湿度传感器B</title>
<ellipse fill="#2e8b57" stroke="#2e8b57" cx="494.759" cy="-430" rx="51.1876" ry="18"/>
<text text-anchor="middle" x="494.759" y="-426.9" font-family="FangSong" font-size="12.00">湿度传感器B</text>
</g>
<!-- 湿度传感器B&#45;&gt;数据采集箱A -->
<g id="edge2" class="edge"><title>湿度传感器B&#45;&gt;数据采集箱A</title>
<path fill="none" stroke="brown" d="M543.074,-424.105C582.203,-418.036 638.559,-406.492 684.24,-386 698.576,-379.569 713.007,-369.953 724.871,-361.012"/>
<polygon fill="brown" stroke="brown" points="727.272,-363.579 733.017,-354.677 722.975,-358.053 727.272,-363.579"/>
<text text-anchor="middle" x="627.74" y="-421.8" font-family="FangSong" font-size="14.00">I2 (2,40) /150</text>
</g>
<!-- 温度传感器A -->
<g id="node4" class="node"><title>温度传感器A</title>
<ellipse fill="#2e8b57" stroke="#2e8b57" cx="494.759" cy="-376" rx="51.1876" ry="18"/>
<text text-anchor="middle" x="494.759" y="-372.9" font-family="FangSong" font-size="12.00">温度传感器A</text>
</g>
<!-- 温度传感器A&#45;&gt;数据采集箱A -->
<g id="edge3" class="edge"><title>温度传感器A&#45;&gt;数据采集箱A</title>
<path fill="none" stroke="brown" d="M543.937,-370.889C582.108,-366.592 636.732,-359.897 684.24,-352 689.246,-351.168 694.445,-350.231 699.637,-349.247"/>
<polygon fill="brown" stroke="brown" points="700.419,-352.661 709.564,-347.311 699.079,-345.79 700.419,-352.661"/>
<text text-anchor="middle" x="627.74" y="-370.8" font-family="FangSong" font-size="14.00">I3 (4,15) /150</text>
</g>
<!-- 温度传感器B -->
<g id="node5" class="node"><title>温度传感器B</title>
<ellipse fill="#2e8b57" stroke="#2e8b57" cx="494.759" cy="-322" rx="51.1876" ry="18"/>
<text text-anchor="middle" x="494.759" y="-318.9" font-family="FangSong" font-size="12.00">温度传感器B</text>
</g>
<!-- 温度传感器B&#45;&gt;数据采集箱A -->
<g id="edge4" class="edge"><title>温度传感器B&#45;&gt;数据采集箱A</title>
<path fill="none" stroke="brown" d="M545.229,-325.085C587.245,-327.705 647.675,-331.473 692.423,-334.264"/>
<polygon fill="brown" stroke="brown" points="692.38,-337.768 702.578,-334.897 692.816,-330.782 692.38,-337.768"/>
<text text-anchor="middle" x="627.74" y="-336.8" font-family="FangSong" font-size="14.00">I4 (3,20) /150</text>
</g>
<!-- 交换机A -->
<g id="node7" class="node"><title>交换机A</title>
<ellipse fill="#2e8b57" stroke="#2e8b57" cx="1233.93" cy="-243" rx="36.1402" ry="18"/>
<text text-anchor="middle" x="1233.93" y="-239.9" font-family="FangSong" font-size="12.00">交换机A</text>
</g>
<!-- 服务器A&#45;&gt;交换机A -->
<g id="edge6" class="edge"><title>服务器A&#45;&gt;交换机A</title>
<path fill="none" stroke="skyblue" d="M1041.05,-243C1080.41,-243 1143.98,-243 1187.06,-243"/>
<polygon fill="skyblue" stroke="skyblue" points="1187.28,-246.5 1197.28,-243 1187.28,-239.5 1187.28,-246.5"/>
<text text-anchor="middle" x="1126.61" y="-246.8" font-family="FangSong" font-size="14.00">I6 (3,30) /400</text>
</g>
<!-- 显控台A -->
<g id="node8" class="node"><title>显控台A</title>
<ellipse fill="#2e8b57" stroke="#2e8b57" cx="1448.57" cy="-243" rx="36.1402" ry="18"/>
<text text-anchor="middle" x="1448.57" y="-239.9" font-family="FangSong" font-size="12.00">显控台A</text>
</g>
<!-- 交换机A&#45;&gt;显控台A -->
<g id="edge7" class="edge"><title>交换机A&#45;&gt;显控台A</title>
<path fill="none" stroke="skyblue" d="M1270.53,-243C1306.67,-243 1362.76,-243 1402.1,-243"/>
<polygon fill="skyblue" stroke="skyblue" points="1402.22,-246.5 1412.22,-243 1402.22,-239.5 1402.22,-246.5"/>
<text text-anchor="middle" x="1341.25" y="-246.8" font-family="FangSong" font-size="14.00">I7 (3,30) /200</text>
</g>
<!-- 显控台B -->
<g id="node9" class="node"><title>显控台B</title>
<ellipse fill="#2e8b57" stroke="#2e8b57" cx="36.3196" cy="-240" rx="36.1402" ry="18"/>
<text text-anchor="middle" x="36.3196" y="-236.9" font-family="FangSong" font-size="12.00">显控台B</text>
</g>
<!-- 服务器B -->
<g id="node10" class="node"><title>服务器B</title>
<ellipse fill="#2e8b57" stroke="#2e8b57" cx="250.959" cy="-240" rx="36.1402" ry="18"/>
<text text-anchor="middle" x="250.959" y="-236.9" font-family="FangSong" font-size="12.00">服务器B</text>
</g>
<!-- 显控台B&#45;&gt;服务器B -->
<g id="edge8" class="edge"><title>显控台B&#45;&gt;服务器B</title>
<path fill="none" stroke="blue" d="M72.9107,-240C109.051,-240 165.147,-240 204.487,-240"/>
<polygon fill="blue" stroke="blue" points="204.606,-243.5 214.606,-240 204.606,-236.5 204.606,-243.5"/>
<text text-anchor="middle" x="143.639" y="-243.8" font-family="FangSong" font-size="14.00">I8 (3,30) /200</text>
</g>
<!-- 控制器B -->
<g id="node11" class="node"><title>控制器B</title>
<ellipse fill="#2e8b57" stroke="#2e8b57" cx="494.759" cy="-265" rx="36.1402" ry="18"/>
<text text-anchor="middle" x="494.759" y="-261.9" font-family="FangSong" font-size="12.00">控制器B</text>
</g>
<!-- 服务器B&#45;&gt;控制器B -->
<g id="edge9" class="edge"><title>服务器B&#45;&gt;控制器B</title>
<path fill="none" stroke="skyblue" d="M286.603,-243.582C329.216,-247.988 401.659,-255.478 448.599,-260.331"/>
<polygon fill="skyblue" stroke="skyblue" points="448.48,-263.837 458.787,-261.384 449.2,-256.874 448.48,-263.837"/>
<text text-anchor="middle" x="361.779" y="-259.8" font-family="FangSong" font-size="14.00">I9 (3,30) /400</text>
</g>
<!-- 控制器A -->
<g id="node17" class="node"><title>控制器A</title>
<ellipse fill="#2e8b57" stroke="#2e8b57" cx="494.759" cy="-211" rx="36.1402" ry="18"/>
<text text-anchor="middle" x="494.759" y="-207.9" font-family="FangSong" font-size="12.00">控制器A</text>
</g>
<!-- 服务器B&#45;&gt;控制器A -->
<g id="edge16" class="edge"><title>服务器B&#45;&gt;控制器A</title>
<path fill="none" stroke="skyblue" d="M283.089,-231.556C290.329,-229.83 298.038,-228.183 305.279,-227 353.716,-219.088 409.834,-214.961 448.158,-212.896"/>
<polygon fill="skyblue" stroke="skyblue" points="448.667,-216.375 458.474,-212.367 448.308,-209.384 448.667,-216.375"/>
<text text-anchor="middle" x="361.779" y="-230.8" font-family="FangSong" font-size="14.00">I16 (3,30) /200</text>
</g>
<!-- 控制器B&#45;&gt;数据采集箱A -->
<g id="edge17" class="edge"><title>控制器B&#45;&gt;数据采集箱A</title>
<path fill="none" stroke="skyblue" d="M529.7,-270.369C567.886,-276.911 631.471,-289.323 684.24,-307 694.124,-310.311 704.503,-314.592 714.095,-318.911"/>
<polygon fill="skyblue" stroke="skyblue" points="712.831,-322.183 723.377,-323.206 715.771,-315.83 712.831,-322.183"/>
<text text-anchor="middle" x="627.74" y="-310.8" font-family="FangSong" font-size="14.00">I17 (3,30) /200</text>
</g>
<!-- 数据采集箱B -->
<g id="node12" class="node"><title>数据采集箱B</title>
<ellipse fill="#2e8b57" stroke="#2e8b57" cx="753.334" cy="-148" rx="51.1876" ry="18"/>
<text text-anchor="middle" x="753.334" y="-144.9" font-family="FangSong" font-size="12.00">数据采集箱B</text>
</g>
<!-- 控制器B&#45;&gt;数据采集箱B -->
<g id="edge10" class="edge"><title>控制器B&#45;&gt;数据采集箱B</title>
<path fill="none" stroke="skyblue" d="M530.658,-261.853C581.496,-257.046 671.302,-247.628 684.24,-240 709.738,-224.966 728.617,-196.28 739.948,-174.918"/>
<polygon fill="skyblue" stroke="skyblue" points="743.077,-176.486 744.479,-165.984 736.834,-173.32 743.077,-176.486"/>
<text text-anchor="middle" x="627.74" y="-260.8" font-family="FangSong" font-size="14.00">I10 (3,30) /200</text>
</g>
<!-- 数据采集箱B&#45;&gt;服务器A -->
<g id="edge20" class="edge"><title>数据采集箱B&#45;&gt;服务器A</title>
<path fill="none" stroke="lightblue" d="M788.721,-161.11C835.186,-178.824 917.729,-210.293 965.835,-228.632"/>
<polygon fill="lightblue" stroke="lightblue" points="964.673,-231.935 975.264,-232.227 967.167,-225.394 964.673,-231.935"/>
<text text-anchor="middle" x="878.928" y="-217.8" font-family="FangSong" font-size="14.00">I20 (3,30) /200</text>
</g>
<!-- 姿态控制器B -->
<g id="node16" class="node"><title>姿态控制器B</title>
<ellipse fill="#2e8b57" stroke="#2e8b57" cx="1004.52" cy="-148" rx="51.1876" ry="18"/>
<text text-anchor="middle" x="1004.52" y="-144.9" font-family="FangSong" font-size="12.00">姿态控制器B</text>
</g>
<!-- 数据采集箱B&#45;&gt;姿态控制器B -->
<g id="edge15" class="edge"><title>数据采集箱B&#45;&gt;姿态控制器B</title>
<path fill="none" stroke="lightblue" d="M804.461,-148C844.375,-148 900.394,-148 942.841,-148"/>
<polygon fill="lightblue" stroke="lightblue" points="943.048,-151.5 953.048,-148 943.048,-144.5 943.048,-151.5"/>
<text text-anchor="middle" x="878.928" y="-151.8" font-family="FangSong" font-size="14.00">I15 (3,30) /200</text>
</g>
<!-- 声呐B -->
<g id="node13" class="node"><title>声呐B</title>
<ellipse fill="#2e8b57" stroke="#2e8b57" cx="494.759" cy="-137" rx="28.8653" ry="18"/>
<text text-anchor="middle" x="494.759" y="-133.9" font-family="FangSong" font-size="12.00">声呐B</text>
</g>
<!-- 声呐B&#45;&gt;数据采集箱B -->
<g id="edge11" class="edge"><title>声呐B&#45;&gt;数据采集箱B</title>
<path fill="none" stroke="lightblue" d="M523.706,-138.198C563.887,-139.921 638.985,-143.14 692.132,-145.419"/>
<polygon fill="lightblue" stroke="lightblue" points="692.312,-148.93 702.452,-145.861 692.611,-141.936 692.312,-148.93"/>
<text text-anchor="middle" x="627.74" y="-149.8" font-family="FangSong" font-size="14.00">I11 (3,30) /200</text>
</g>
<!-- 声呐B&#45;&gt;数据采集箱B -->
<g id="edge12" class="edge"><title>声呐B&#45;&gt;数据采集箱B</title>
<path fill="none" stroke="lightblue" d="M521.77,-130.521C536.234,-127.25 554.62,-123.635 571.24,-122 621.221,-117.082 634.851,-112.892 684.24,-122 693.562,-123.719 703.258,-126.658 712.312,-129.956"/>
<polygon fill="lightblue" stroke="lightblue" points="711.247,-133.297 721.836,-133.635 713.769,-126.767 711.247,-133.297"/>
<text text-anchor="middle" x="627.74" y="-125.8" font-family="FangSong" font-size="14.00">I12 (3,30) /200</text>
</g>
<!-- 多普勒传感器A -->
<g id="node14" class="node"><title>多普勒传感器A</title>
<ellipse fill="#2e8b57" stroke="#2e8b57" cx="494.759" cy="-72" rx="58.4615" ry="18"/>
<text text-anchor="middle" x="494.759" y="-68.9" font-family="FangSong" font-size="12.00">多普勒传感器A</text>
</g>
<!-- 多普勒传感器A&#45;&gt;数据采集箱B -->
<g id="edge13" class="edge"><title>多普勒传感器A&#45;&gt;数据采集箱B</title>
<path fill="none" stroke="lightblue" d="M553.312,-72.6315C591.644,-74.7903 642.455,-81.0571 684.24,-98 699.59,-104.224 714.649,-114.688 726.686,-124.439"/>
<polygon fill="lightblue" stroke="lightblue" points="724.598,-127.256 734.504,-131.015 729.104,-121.899 724.598,-127.256"/>
<text text-anchor="middle" x="627.74" y="-101.8" font-family="FangSong" font-size="14.00">I13 (3,30) /200</text>
</g>
<!-- 陀螺仪A -->
<g id="node15" class="node"><title>陀螺仪A</title>
<ellipse fill="#2e8b57" stroke="#2e8b57" cx="494.759" cy="-18" rx="36.1402" ry="18"/>
<text text-anchor="middle" x="494.759" y="-14.9" font-family="FangSong" font-size="12.00">陀螺仪A</text>
</g>
<!-- 陀螺仪A&#45;&gt;数据采集箱B -->
<g id="edge14" class="edge"><title>陀螺仪A&#45;&gt;数据采集箱B</title>
<path fill="none" stroke="lightblue" d="M531.204,-17.7407C571.321,-19.0337 637.196,-26.0922 684.24,-56 708.962,-71.7166 727.792,-99.8412 739.318,-120.871"/>
<polygon fill="lightblue" stroke="lightblue" points="736.346,-122.739 744.095,-129.964 742.543,-119.484 736.346,-122.739"/>
<text text-anchor="middle" x="627.74" y="-59.8" font-family="FangSong" font-size="14.00">I14 (3,30) /200</text>
</g>
<!-- 控制器A&#45;&gt;数据采集箱A -->
<g id="edge18" class="edge"><title>控制器A&#45;&gt;数据采集箱A</title>
<path fill="none" stroke="skyblue" d="M531.057,-208.968C578.408,-206.895 659.422,-205.84 684.24,-221 716.75,-240.859 735.391,-282.476 744.692,-310.337"/>
<polygon fill="skyblue" stroke="skyblue" points="741.364,-311.424 747.704,-319.913 748.042,-309.323 741.364,-311.424"/>
<text text-anchor="middle" x="627.74" y="-224.8" font-family="FangSong" font-size="14.00">I18 (3,30) /200</text>
</g>
<!-- 控制器A&#45;&gt;数据采集箱B -->
<g id="edge19" class="edge"><title>控制器A&#45;&gt;数据采集箱B</title>
<path fill="none" stroke="skyblue" d="M524.94,-200.918C538.857,-196.317 555.802,-191.013 571.24,-187 620.843,-174.105 634.177,-174.974 684.24,-164 689.578,-162.83 695.143,-161.577 700.691,-160.306"/>
<polygon fill="skyblue" stroke="skyblue" points="701.651,-163.676 710.606,-158.014 700.074,-156.856 701.651,-163.676"/>
<text text-anchor="middle" x="627.74" y="-190.8" font-family="FangSong" font-size="14.00">I19 (3,30) /200</text>
</g>
</g>
</svg>
