<?xml version="1.0" encoding="UTF-8" standalone="no"?>
<!DOCTYPE svg PUBLIC "-//W3C//DTD SVG 1.1//EN" "http://www.w3.org/Graphics/SVG/1.1/DTD/svg11.dtd">
<!-- 由 Microsoft Visio, SVG Export 生成 project_info.svg Page-1 -->
<svg xmlns="http://www.w3.org/2000/svg" xmlns:xlink="http://www.w3.org/1999/xlink" xmlns:ev="http://www.w3.org/2001/xml-events"
		xmlns:v="http://schemas.microsoft.com/visio/2003/SVGExtensions/" width="11.6929in" height="8.26772in"
		viewBox="0 0 841.89 595.276" xml:space="preserve" color-interpolation-filters="sRGB" class="st10">
	<v:documentProperties v:langID="2052" v:metric="true" v:viewMarkup="false">
		<v:userDefs>
			<v:ud v:nameU="msvNoAutoConnect" v:val="VT0(1):26"/>
		</v:userDefs>
	</v:documentProperties>

	<style type="text/css">
	<![CDATA[
		.st1 {fill:#ffffff;fill-opacity:0;stroke:#f59d56;stroke-linecap:round;stroke-linejoin:round;stroke-width:0.5}
		.st2 {fill:#92d050;font-family:宋体;font-size:0.833336em}
		.st3 {fill:#92d050;stroke:#000000;stroke-linecap:round;stroke-linejoin:round;stroke-width:0.5}
		.st4 {fill:#f2f2f2;font-family:宋体;font-size:0.833336em}
		.st5 {marker-start:url(#mrkr5-71);stroke:#f59d56;stroke-linecap:round;stroke-linejoin:round;stroke-width:0.5}
		.st6 {fill:#f59d56;fill-opacity:1;stroke:#f59d56;stroke-opacity:1;stroke-width:0.16556291390728}
		.st7 {stroke:#f59d56;stroke-linecap:round;stroke-linejoin:round;stroke-width:0.5}
		.st8 {fill:#ffffff;font-family:宋体;font-size:0.833336em}
		.st9 {fill:#ffffff;fill-opacity:0;stroke:#9dbb61;stroke-dasharray:9.5,2.5,3.5,2.5;stroke-linecap:round;stroke-linejoin:round;stroke-width:0.5}
		.st10 {fill:none;fill-rule:evenodd;font-size:12px;overflow:visible;stroke-linecap:square;stroke-miterlimit:3}
	]]>
	</style>

	<defs id="Markers">
		<g id="lend5">
			<path d="M 2 1 L 0 0 L 1.98117 -0.993387 C 1.67173 -0.364515 1.67301 0.372641 1.98465 1.00043 " style="stroke:none"/>
		</g>
		<marker id="mrkr5-71" class="st6" v:arrowType="5" v:arrowSize="2" v:setback="9.85" refX="9.85" orient="auto"
				markerUnits="strokeWidth" overflow="visible">
			<use xlink:href="#lend5" transform="scale(6.04) "/>
		</marker>
	</defs>
	<g v:mID="0" v:index="1" v:groupContext="foregroundPage">
		<title>页-1</title>
		<v:pageProperties v:drawingScale="0.0393701" v:pageScale="0.0393701" v:drawingUnits="24" v:shadowOffsetX="8.50394"
				v:shadowOffsetY="-8.50394"/>
		<g id="shape1-1" v:mID="1" v:groupContext="shape" transform="translate(185.669,-421.08)">
			<title>矩形</title>
			<desc>配置评估组件</desc>
			<v:userDefs>
				<v:ud v:nameU="visVersion" v:val="VT0(15):26"/>
			</v:userDefs>
			<v:textBlock v:margins="rect(4,4,4,4)" v:tabSpace="42.5197"/>
			<v:textRect cx="38.1625" cy="583.593" width="76.33" height="23.3648"/>
			<rect x="0" y="571.911" width="76.3249" height="23.3648" class="st1"/>
			<text x="8.16" y="586.59" class="st2" v:langID="2052"><v:paragraph v:horizAlign="1"/><v:tabList/>配置评估组件</text>		</g>
		<g id="shape3-4" v:mID="3" v:groupContext="shape" transform="translate(28.3465,-414.59)">
			<title>圆形</title>
			<desc>开始</desc>
			<v:userDefs>
				<v:ud v:nameU="visVersion" v:val="VT0(15):26"/>
			</v:userDefs>
			<v:textBlock v:margins="rect(4,4,4,4)" v:tabSpace="42.5197"/>
			<v:textRect cx="18.8216" cy="576.454" width="32.94" height="28.2324"/>
			<path d="M0 576.45 A18.8216 18.8216 0 0 1 37.64 576.45 A18.8216 18.8216 0 1 1 0 576.45 Z" class="st3"/>
			<text x="8.82" y="579.45" class="st4" v:langID="2052"><v:paragraph v:horizAlign="1"/><v:tabList/>开始</text>		</g>
		<g id="shape4-7" v:mID="4" v:groupContext="shape" transform="translate(397.51,-499.742)">
			<title>圆角矩形</title>
			<desc>物理属性评估</desc>
			<v:userDefs>
				<v:ud v:nameU="CTypeTopLeftSnip" v:prompt="" v:val="VT0(0):5"/>
				<v:ud v:nameU="CTypeTopRightSnip" v:prompt="" v:val="VT0(0):5"/>
				<v:ud v:nameU="CTypeBotLeftSnip" v:prompt="" v:val="VT0(0):5"/>
				<v:ud v:nameU="CTypeBotRightSnip" v:prompt="" v:val="VT0(0):5"/>
				<v:ud v:nameU="CornerLockHoriz" v:prompt="" v:val="VT0(1):5"/>
				<v:ud v:nameU="CornerLockVert" v:prompt="" v:val="VT0(1):5"/>
				<v:ud v:nameU="CornerLockDiag" v:prompt="" v:val="VT0(0):5"/>
				<v:ud v:nameU="TopLeftOffset" v:prompt="" v:val="VT0(0.15748031496063):24"/>
				<v:ud v:nameU="TopRightOffset" v:prompt="" v:val="VT0(0.15748031496063):24"/>
				<v:ud v:nameU="BotLeftOffset" v:prompt="" v:val="VT0(0.15748031496063):24"/>
				<v:ud v:nameU="BotRightOffset" v:prompt="" v:val="VT0(0.15748031496063):24"/>
				<v:ud v:nameU="visVersion" v:prompt="" v:val="VT0(15):26"/>
				<v:ud v:nameU="TopLeftOffset" v:prompt="" v:val="VT0(0.10817026584548):1"/>
				<v:ud v:nameU="TopRightOffset" v:prompt="" v:val="VT0(0.10817026584548):1"/>
				<v:ud v:nameU="BotLeftOffset" v:prompt="" v:val="VT0(0.10817026584548):1"/>
				<v:ud v:nameU="BotRightOffset" v:prompt="" v:val="VT0(0.10817026584548):1"/>
			</v:userDefs>
			<v:textBlock v:margins="rect(4,4,4,4)" v:tabSpace="42.5197"/>
			<v:textRect cx="38.9413" cy="583.593" width="77.89" height="23.3648"/>
			<path d="M7.79 595.28 L70.09 595.28 A7.78813 7.78813 -180 0 0 77.88 587.49 L77.88 579.7 A7.78813 7.78813 -180 0 0 70.09
						 571.91 L7.79 571.91 A7.78813 7.78813 -180 0 0 -0 579.7 L0 587.49 A7.78813 7.78813 -180 0 0 7.79 595.28 Z"
					class="st1"/>
			<text x="8.94" y="586.59" class="st2" v:langID="2052"><v:paragraph v:horizAlign="1"/><v:tabList/>物理属性评估</text>		</g>
		<g id="shape6-10" v:mID="6" v:groupContext="shape" transform="translate(276.013,-433.542)">
			<title>虚尾箭头</title>
			<v:userDefs>
				<v:ud v:nameU="visVersion" v:prompt="" v:val="VT0(15):26"/>
			</v:userDefs>
			<path d="M6 589.31 L59.51 589.31 L59.51 583.34 L81 595.28 L59.51 607.21 L59.51 601.24 L6 601.24 L6 589.31 ZM2.4 589.31
						 L4.8 589.31 L4.8 601.24 L2.4 601.24 L2.4 589.31 ZM0 589.31 L1.2 589.31 L1.2 601.24 L0 601.24 L0 589.31 Z"
					class="st3"/>
		</g>
		<g id="shape10-12" v:mID="10" v:groupContext="shape" transform="translate(98.4408,-421.08)">
			<title>矩形.10</title>
			<desc>新建工程</desc>
			<v:userDefs>
				<v:ud v:nameU="visVersion" v:val="VT0(15):26"/>
			</v:userDefs>
			<v:textBlock v:margins="rect(4,4,4,4)" v:tabSpace="42.5197"/>
			<v:textRect cx="31.153" cy="583.593" width="62.31" height="23.3648"/>
			<rect x="0" y="571.911" width="62.3061" height="23.3648" class="st1"/>
			<text x="11.15" y="586.59" class="st2" v:langID="2052"><v:paragraph v:horizAlign="1"/><v:tabList/>新建工程</text>		</g>
		<g id="shape11-15" v:mID="11" v:groupContext="shape" transform="translate(397.51,-417.965)">
			<title>圆角矩形.11</title>
			<desc>架构安全评估</desc>
			<v:userDefs>
				<v:ud v:nameU="CTypeTopLeftSnip" v:prompt="" v:val="VT0(0):5"/>
				<v:ud v:nameU="CTypeTopRightSnip" v:prompt="" v:val="VT0(0):5"/>
				<v:ud v:nameU="CTypeBotLeftSnip" v:prompt="" v:val="VT0(0):5"/>
				<v:ud v:nameU="CTypeBotRightSnip" v:prompt="" v:val="VT0(0):5"/>
				<v:ud v:nameU="CornerLockHoriz" v:prompt="" v:val="VT0(1):5"/>
				<v:ud v:nameU="CornerLockVert" v:prompt="" v:val="VT0(1):5"/>
				<v:ud v:nameU="CornerLockDiag" v:prompt="" v:val="VT0(0):5"/>
				<v:ud v:nameU="TopLeftOffset" v:prompt="" v:val="VT0(0.15748031496063):24"/>
				<v:ud v:nameU="TopRightOffset" v:prompt="" v:val="VT0(0.15748031496063):24"/>
				<v:ud v:nameU="BotLeftOffset" v:prompt="" v:val="VT0(0.15748031496063):24"/>
				<v:ud v:nameU="BotRightOffset" v:prompt="" v:val="VT0(0.15748031496063):24"/>
				<v:ud v:nameU="visVersion" v:prompt="" v:val="VT0(15):26"/>
				<v:ud v:nameU="TopLeftOffset" v:prompt="" v:val="VT0(0.10817026584548):1"/>
				<v:ud v:nameU="TopRightOffset" v:prompt="" v:val="VT0(0.10817026584548):1"/>
				<v:ud v:nameU="BotLeftOffset" v:prompt="" v:val="VT0(0.10817026584548):1"/>
				<v:ud v:nameU="BotRightOffset" v:prompt="" v:val="VT0(0.10817026584548):1"/>
			</v:userDefs>
			<v:textBlock v:margins="rect(4,4,4,4)" v:tabSpace="42.5197"/>
			<v:textRect cx="38.9413" cy="583.593" width="77.89" height="23.3648"/>
			<path d="M7.79 595.28 L70.09 595.28 A7.78813 7.78813 -180 0 0 77.88 587.49 L77.88 579.7 A7.78813 7.78813 -180 0 0 70.09
						 571.91 L7.79 571.91 A7.78813 7.78813 -180 0 0 -0 579.7 L0 587.49 A7.78813 7.78813 -180 0 0 7.79 595.28 Z"
					class="st1"/>
			<text x="8.94" y="586.59" class="st2" v:langID="2052"><v:paragraph v:horizAlign="1"/><v:tabList/>架构安全评估</text>		</g>
		<g id="shape12-18" v:mID="12" v:groupContext="shape" transform="translate(397.51,-340.082)">
			<title>圆角矩形.12</title>
			<desc>信息流评估</desc>
			<v:userDefs>
				<v:ud v:nameU="CTypeTopLeftSnip" v:prompt="" v:val="VT0(0):5"/>
				<v:ud v:nameU="CTypeTopRightSnip" v:prompt="" v:val="VT0(0):5"/>
				<v:ud v:nameU="CTypeBotLeftSnip" v:prompt="" v:val="VT0(0):5"/>
				<v:ud v:nameU="CTypeBotRightSnip" v:prompt="" v:val="VT0(0):5"/>
				<v:ud v:nameU="CornerLockHoriz" v:prompt="" v:val="VT0(1):5"/>
				<v:ud v:nameU="CornerLockVert" v:prompt="" v:val="VT0(1):5"/>
				<v:ud v:nameU="CornerLockDiag" v:prompt="" v:val="VT0(0):5"/>
				<v:ud v:nameU="TopLeftOffset" v:prompt="" v:val="VT0(0.15748031496063):24"/>
				<v:ud v:nameU="TopRightOffset" v:prompt="" v:val="VT0(0.15748031496063):24"/>
				<v:ud v:nameU="BotLeftOffset" v:prompt="" v:val="VT0(0.15748031496063):24"/>
				<v:ud v:nameU="BotRightOffset" v:prompt="" v:val="VT0(0.15748031496063):24"/>
				<v:ud v:nameU="visVersion" v:prompt="" v:val="VT0(15):26"/>
				<v:ud v:nameU="TopLeftOffset" v:prompt="" v:val="VT0(0.10817026584548):1"/>
				<v:ud v:nameU="TopRightOffset" v:prompt="" v:val="VT0(0.10817026584548):1"/>
				<v:ud v:nameU="BotLeftOffset" v:prompt="" v:val="VT0(0.10817026584548):1"/>
				<v:ud v:nameU="BotRightOffset" v:prompt="" v:val="VT0(0.10817026584548):1"/>
			</v:userDefs>
			<v:textBlock v:margins="rect(4,4,4,4)" v:tabSpace="42.5197"/>
			<v:textRect cx="38.9413" cy="583.593" width="77.89" height="23.3648"/>
			<path d="M7.79 595.28 L70.09 595.28 A7.78813 7.78813 -180 0 0 77.88 587.49 L77.88 579.7 A7.78813 7.78813 -180 0 0 70.09
						 571.91 L7.79 571.91 A7.78813 7.78813 -180 0 0 -0 579.7 L0 587.49 A7.78813 7.78813 -180 0 0 7.79 595.28 Z"
					class="st1"/>
			<text x="13.94" y="586.59" class="st2" v:langID="2052"><v:paragraph v:horizAlign="1"/><v:tabList/>信息流评估</text>		</g>
		<g id="shape13-21" v:mID="13" v:groupContext="shape" transform="translate(557.948,-231.047)">
			<title>圆角矩形.13</title>
			<desc>工作流评估</desc>
			<v:userDefs>
				<v:ud v:nameU="CTypeTopLeftSnip" v:prompt="" v:val="VT0(0):5"/>
				<v:ud v:nameU="CTypeTopRightSnip" v:prompt="" v:val="VT0(0):5"/>
				<v:ud v:nameU="CTypeBotLeftSnip" v:prompt="" v:val="VT0(0):5"/>
				<v:ud v:nameU="CTypeBotRightSnip" v:prompt="" v:val="VT0(0):5"/>
				<v:ud v:nameU="CornerLockHoriz" v:prompt="" v:val="VT0(1):5"/>
				<v:ud v:nameU="CornerLockVert" v:prompt="" v:val="VT0(1):5"/>
				<v:ud v:nameU="CornerLockDiag" v:prompt="" v:val="VT0(0):5"/>
				<v:ud v:nameU="TopLeftOffset" v:prompt="" v:val="VT0(0.15748031496063):24"/>
				<v:ud v:nameU="TopRightOffset" v:prompt="" v:val="VT0(0.15748031496063):24"/>
				<v:ud v:nameU="BotLeftOffset" v:prompt="" v:val="VT0(0.15748031496063):24"/>
				<v:ud v:nameU="BotRightOffset" v:prompt="" v:val="VT0(0.15748031496063):24"/>
				<v:ud v:nameU="visVersion" v:prompt="" v:val="VT0(15):26"/>
				<v:ud v:nameU="TopLeftOffset" v:prompt="" v:val="VT0(0.10817026584548):1"/>
				<v:ud v:nameU="TopRightOffset" v:prompt="" v:val="VT0(0.10817026584548):1"/>
				<v:ud v:nameU="BotLeftOffset" v:prompt="" v:val="VT0(0.10817026584548):1"/>
				<v:ud v:nameU="BotRightOffset" v:prompt="" v:val="VT0(0.10817026584548):1"/>
			</v:userDefs>
			<v:textBlock v:margins="rect(4,4,4,4)" v:tabSpace="42.5197"/>
			<v:textRect cx="38.9413" cy="583.593" width="77.89" height="23.3648"/>
			<path d="M7.79 595.28 L70.09 595.28 A7.78813 7.78813 -180 0 0 77.88 587.49 L77.88 579.7 A7.78813 7.78813 -180 0 0 70.09
						 571.91 L7.79 571.91 A7.78813 7.78813 -180 0 0 -0 579.7 L0 587.49 A7.78813 7.78813 -180 0 0 7.79 595.28 Z"
					class="st1"/>
			<text x="13.94" y="586.59" class="st2" v:langID="2052"><v:paragraph v:horizAlign="1"/><v:tabList/>工作流评估</text>		</g>
		<g id="shape14-24" v:mID="14" v:groupContext="shape" transform="translate(308.724,-231.047)">
			<title>圆角矩形.14</title>
			<desc>态势仿真</desc>
			<v:userDefs>
				<v:ud v:nameU="CTypeTopLeftSnip" v:prompt="" v:val="VT0(0):5"/>
				<v:ud v:nameU="CTypeTopRightSnip" v:prompt="" v:val="VT0(0):5"/>
				<v:ud v:nameU="CTypeBotLeftSnip" v:prompt="" v:val="VT0(0):5"/>
				<v:ud v:nameU="CTypeBotRightSnip" v:prompt="" v:val="VT0(0):5"/>
				<v:ud v:nameU="CornerLockHoriz" v:prompt="" v:val="VT0(1):5"/>
				<v:ud v:nameU="CornerLockVert" v:prompt="" v:val="VT0(1):5"/>
				<v:ud v:nameU="CornerLockDiag" v:prompt="" v:val="VT0(0):5"/>
				<v:ud v:nameU="TopLeftOffset" v:prompt="" v:val="VT0(0.15748031496063):24"/>
				<v:ud v:nameU="TopRightOffset" v:prompt="" v:val="VT0(0.15748031496063):24"/>
				<v:ud v:nameU="BotLeftOffset" v:prompt="" v:val="VT0(0.15748031496063):24"/>
				<v:ud v:nameU="BotRightOffset" v:prompt="" v:val="VT0(0.15748031496063):24"/>
				<v:ud v:nameU="visVersion" v:prompt="" v:val="VT0(15):26"/>
				<v:ud v:nameU="TopLeftOffset" v:prompt="" v:val="VT0(0.10817026584548):1"/>
				<v:ud v:nameU="TopRightOffset" v:prompt="" v:val="VT0(0.10817026584548):1"/>
				<v:ud v:nameU="BotLeftOffset" v:prompt="" v:val="VT0(0.10817026584548):1"/>
				<v:ud v:nameU="BotRightOffset" v:prompt="" v:val="VT0(0.10817026584548):1"/>
			</v:userDefs>
			<v:textBlock v:margins="rect(4,4,4,4)" v:tabSpace="42.5197"/>
			<v:textRect cx="38.9413" cy="583.593" width="77.89" height="23.3648"/>
			<path d="M7.79 595.28 L70.09 595.28 A7.78813 7.78813 -180 0 0 77.88 587.49 L77.88 579.7 A7.78813 7.78813 -180 0 0 70.09
						 571.91 L7.79 571.91 A7.78813 7.78813 -180 0 0 -0 579.7 L0 587.49 A7.78813 7.78813 -180 0 0 7.79 595.28 Z"
					class="st1"/>
			<text x="18.94" y="586.59" class="st2" v:langID="2052"><v:paragraph v:horizAlign="1"/><v:tabList/>态势仿真</text>		</g>
		<g id="shape15-27" v:mID="15" v:groupContext="shape" transform="translate(498.757,-499.742)">
			<title>矩形.15</title>
			<desc>选择设备</desc>
			<v:userDefs>
				<v:ud v:nameU="visVersion" v:val="VT0(15):26"/>
			</v:userDefs>
			<v:textBlock v:margins="rect(4,4,4,4)" v:tabSpace="42.5197"/>
			<v:textRect cx="45.1719" cy="583.593" width="90.35" height="23.3648"/>
			<rect x="0" y="571.911" width="90.3438" height="23.3648" class="st1"/>
			<text x="25.17" y="586.59" class="st2" v:langID="2052"><v:paragraph v:horizAlign="1"/><v:tabList/>选择设备</text>		</g>
		<g id="shape16-30" v:mID="16" v:groupContext="shape" transform="translate(604.678,-499.742)">
			<title>矩形.16</title>
			<desc>作答问卷</desc>
			<v:userDefs>
				<v:ud v:nameU="visVersion" v:val="VT0(15):26"/>
			</v:userDefs>
			<v:textBlock v:margins="rect(4,4,4,4)" v:tabSpace="42.5197"/>
			<v:textRect cx="45.1719" cy="583.593" width="90.35" height="23.3648"/>
			<rect x="0" y="571.911" width="90.3438" height="23.3648" class="st1"/>
			<text x="25.17" y="586.59" class="st2" v:langID="2052"><v:paragraph v:horizAlign="1"/><v:tabList/>作答问卷</text>		</g>
		<g id="shape17-33" v:mID="17" v:groupContext="shape" transform="translate(715.271,-499.742)">
			<title>矩形.17</title>
			<desc>获取结果及建议</desc>
			<v:userDefs>
				<v:ud v:nameU="visVersion" v:val="VT0(15):26"/>
			</v:userDefs>
			<v:textBlock v:margins="rect(4,4,4,4)" v:tabSpace="42.5197"/>
			<v:textRect cx="45.1719" cy="583.593" width="90.35" height="23.3648"/>
			<rect x="0" y="571.911" width="90.3438" height="23.3648" class="st1"/>
			<text x="10.17" y="586.59" class="st2" v:langID="2052"><v:paragraph v:horizAlign="1"/><v:tabList/>获取结果及建议</text>		</g>
		<g id="shape20-36" v:mID="20" v:groupContext="shape" transform="translate(494.084,-340.082)">
			<title>矩形.20</title>
			<desc>信息交互拓扑</desc>
			<v:userDefs>
				<v:ud v:nameU="visVersion" v:val="VT0(15):26"/>
			</v:userDefs>
			<v:textBlock v:margins="rect(4,4,4,4)" v:tabSpace="42.5197"/>
			<v:textRect cx="45.1719" cy="583.593" width="90.35" height="23.3648"/>
			<rect x="0" y="571.911" width="90.3438" height="23.3648" class="st1"/>
			<text x="15.17" y="586.59" class="st2" v:langID="2052"><v:paragraph v:horizAlign="1"/><v:tabList/>信息交互拓扑</text>		</g>
		<g id="shape21-39" v:mID="21" v:groupContext="shape" transform="translate(603.12,-340.082)">
			<title>矩形.21</title>
			<desc>配置评估对象</desc>
			<v:userDefs>
				<v:ud v:nameU="visVersion" v:val="VT0(15):26"/>
			</v:userDefs>
			<v:textBlock v:margins="rect(4,4,4,4)" v:tabSpace="42.5197"/>
			<v:textRect cx="45.1719" cy="583.593" width="90.35" height="23.3648"/>
			<rect x="0" y="571.911" width="90.3438" height="23.3648" class="st1"/>
			<text x="15.17" y="586.59" class="st2" v:langID="2052"><v:paragraph v:horizAlign="1"/><v:tabList/>配置评估对象</text>		</g>
		<g id="shape22-42" v:mID="22" v:groupContext="shape" transform="translate(715.271,-417.965)">
			<title>矩形.22</title>
			<desc>获取结果及建议</desc>
			<v:userDefs>
				<v:ud v:nameU="visVersion" v:val="VT0(15):26"/>
			</v:userDefs>
			<v:textBlock v:margins="rect(4,4,4,4)" v:tabSpace="42.5197"/>
			<v:textRect cx="45.1719" cy="583.593" width="90.35" height="23.3648"/>
			<rect x="0" y="571.911" width="90.3438" height="23.3648" class="st1"/>
			<text x="10.17" y="586.59" class="st2" v:langID="2052"><v:paragraph v:horizAlign="1"/><v:tabList/>获取结果及建议</text>		</g>
		<g id="shape24-45" v:mID="24" v:groupContext="shape" transform="translate(712.156,-340.082)">
			<title>矩形.24</title>
			<desc>获取结果及建议</desc>
			<v:userDefs>
				<v:ud v:nameU="visVersion" v:val="VT0(15):26"/>
			</v:userDefs>
			<v:textBlock v:margins="rect(4,4,4,4)" v:tabSpace="42.5197"/>
			<v:textRect cx="45.1719" cy="583.593" width="90.35" height="23.3648"/>
			<rect x="0" y="571.911" width="90.3438" height="23.3648" class="st1"/>
			<text x="10.17" y="586.59" class="st2" v:langID="2052"><v:paragraph v:horizAlign="1"/><v:tabList/>获取结果及建议</text>		</g>
		<g id="shape25-48" v:mID="25" v:groupContext="shape" transform="translate(551.717,-176.529)">
			<title>矩形.25</title>
			<desc>选择评估任务</desc>
			<v:userDefs>
				<v:ud v:nameU="visVersion" v:val="VT0(15):26"/>
			</v:userDefs>
			<v:textBlock v:margins="rect(4,4,4,4)" v:tabSpace="42.5197"/>
			<v:textRect cx="45.1719" cy="583.593" width="90.35" height="23.3648"/>
			<rect x="0" y="571.911" width="90.3438" height="23.3648" class="st1"/>
			<text x="15.17" y="586.59" class="st2" v:langID="2052"><v:paragraph v:horizAlign="1"/><v:tabList/>选择评估任务</text>		</g>
		<g id="shape26-51" v:mID="26" v:groupContext="shape" transform="translate(551.717,-125.905)">
			<title>矩形.26</title>
			<desc>配置参数</desc>
			<v:userDefs>
				<v:ud v:nameU="visVersion" v:val="VT0(15):26"/>
			</v:userDefs>
			<v:textBlock v:margins="rect(4,4,4,4)" v:tabSpace="42.5197"/>
			<v:textRect cx="45.1719" cy="583.593" width="90.35" height="23.3648"/>
			<rect x="0" y="571.911" width="90.3438" height="23.3648" class="st1"/>
			<text x="25.17" y="586.59" class="st2" v:langID="2052"><v:paragraph v:horizAlign="1"/><v:tabList/>配置参数</text>		</g>
		<g id="shape27-54" v:mID="27" v:groupContext="shape" transform="translate(551.717,-75.2816)">
			<title>矩形.27</title>
			<desc>获取结果及建议</desc>
			<v:userDefs>
				<v:ud v:nameU="visVersion" v:val="VT0(15):26"/>
			</v:userDefs>
			<v:textBlock v:margins="rect(4,4,4,4)" v:tabSpace="42.5197"/>
			<v:textRect cx="45.1719" cy="583.593" width="90.35" height="23.3648"/>
			<rect x="0" y="571.911" width="90.3438" height="23.3648" class="st1"/>
			<text x="10.17" y="586.59" class="st2" v:langID="2052"><v:paragraph v:horizAlign="1"/><v:tabList/>获取结果及建议</text>		</g>
		<g id="shape28-57" v:mID="28" v:groupContext="shape" transform="translate(302.493,-176.529)">
			<title>矩形.28</title>
			<desc>选择评估任务</desc>
			<v:userDefs>
				<v:ud v:nameU="visVersion" v:val="VT0(15):26"/>
			</v:userDefs>
			<v:textBlock v:margins="rect(4,4,4,4)" v:tabSpace="42.5197"/>
			<v:textRect cx="45.1719" cy="583.593" width="90.35" height="23.3648"/>
			<rect x="0" y="571.911" width="90.3438" height="23.3648" class="st1"/>
			<text x="15.17" y="586.59" class="st2" v:langID="2052"><v:paragraph v:horizAlign="1"/><v:tabList/>选择评估任务</text>		</g>
		<g id="shape29-60" v:mID="29" v:groupContext="shape" transform="translate(302.493,-126.684)">
			<title>矩形.29</title>
			<desc>配置参数</desc>
			<v:userDefs>
				<v:ud v:nameU="visVersion" v:val="VT0(15):26"/>
			</v:userDefs>
			<v:textBlock v:margins="rect(4,4,4,4)" v:tabSpace="42.5197"/>
			<v:textRect cx="45.1719" cy="583.593" width="90.35" height="23.3648"/>
			<rect x="0" y="571.911" width="90.3438" height="23.3648" class="st1"/>
			<text x="25.17" y="586.59" class="st2" v:langID="2052"><v:paragraph v:horizAlign="1"/><v:tabList/>配置参数</text>		</g>
		<g id="shape30-63" v:mID="30" v:groupContext="shape" transform="translate(302.493,-76.8392)">
			<title>矩形.30</title>
			<desc>获取结果及建议</desc>
			<v:userDefs>
				<v:ud v:nameU="visVersion" v:val="VT0(15):26"/>
			</v:userDefs>
			<v:textBlock v:margins="rect(4,4,4,4)" v:tabSpace="42.5197"/>
			<v:textRect cx="45.1719" cy="583.593" width="90.35" height="23.3648"/>
			<rect x="0" y="571.911" width="90.3438" height="23.3648" class="st1"/>
			<text x="10.17" y="586.59" class="st2" v:langID="2052"><v:paragraph v:horizAlign="1"/><v:tabList/>获取结果及建议</text>		</g>
		<g id="shape31-66" v:mID="31" v:groupContext="shape" transform="translate(185.669,757.788) rotate(180)">
			<title>工作表.31</title>
			<path d="M4.93 595.28 L5.29 595.28 L24.92 595.28" class="st5"/>
		</g>
		<g id="shape32-72" v:mID="32" v:groupContext="shape" transform="translate(86.5377,757.669) rotate(-178.854)">
			<title>工作表.32</title>
			<path d="M4.93 595.28 L5.29 595.28 L32.46 595.28" class="st5"/>
		</g>
		<g id="shape34-77" v:mID="34" v:groupContext="shape" transform="translate(498.757,679.127) rotate(180)">
			<title>工作表.34</title>
			<path d="M4.93 595.28 L5.29 595.28 L23.36 595.28" class="st5"/>
		</g>
		<g id="shape35-82" v:mID="35" v:groupContext="shape" transform="translate(604.678,679.127) rotate(180)">
			<title>工作表.35</title>
			<path d="M4.93 595.28 L5.29 595.28 L15.58 595.28" class="st5"/>
		</g>
		<g id="shape36-87" v:mID="36" v:groupContext="shape" transform="translate(715.271,679.127) rotate(180)">
			<title>工作表.36</title>
			<path d="M4.93 595.28 L5.29 595.28 L20.25 595.28" class="st5"/>
		</g>
		<g id="shape41-92" v:mID="41" v:groupContext="shape" transform="translate(553.275,760.904) rotate(180)">
			<title>工作表.41</title>
			<path d="M4.93 595.28 L5.29 595.28 L77.88 595.28" class="st5"/>
		</g>
		<g id="shape42-97" v:mID="42" v:groupContext="shape" transform="translate(715.271,760.904) rotate(180)">
			<title>工作表.42</title>
			<path d="M4.93 595.28 L5.28 595.28 L76.32 595.28" class="st5"/>
		</g>
		<g id="shape46-102" v:mID="46" v:groupContext="shape" transform="translate(494.084,838.786) rotate(180)">
			<title>工作表.46</title>
			<path d="M4.93 595.28 L5.29 595.28 L18.69 595.28" class="st5"/>
		</g>
		<g id="shape47-107" v:mID="47" v:groupContext="shape" transform="translate(603.12,838.786) rotate(180)">
			<title>工作表.47</title>
			<path d="M4.93 595.28 L5.29 595.28 L18.69 595.28" class="st5"/>
		</g>
		<g id="shape48-112" v:mID="48" v:groupContext="shape" transform="translate(712.156,838.786) rotate(180)">
			<title>工作表.48</title>
			<path d="M4.93 595.28 L5.29 595.28 L18.69 595.28" class="st5"/>
		</g>
		<g id="group49-117" transform="translate(545.487,-386.812)" v:mID="49" v:groupContext="group">
			<title>工作表.49</title>
			<g id="shape18-118" v:mID="18" v:groupContext="shape" transform="translate(18.6918,-62.3061)">
				<title>矩形.18</title>
				<desc>作答问卷</desc>
				<v:userDefs>
					<v:ud v:nameU="visVersion" v:val="VT0(15):26"/>
				</v:userDefs>
				<v:textBlock v:margins="rect(4,4,4,4)" v:tabSpace="42.5197"/>
				<v:textRect cx="31.153" cy="583.593" width="62.31" height="23.3648"/>
				<rect x="0" y="571.911" width="62.3061" height="23.3648" class="st1"/>
				<text x="11.15" y="586.59" class="st2" v:langID="2052"><v:paragraph v:horizAlign="1"/><v:tabList/>作答问卷</text>			</g>
			<g id="shape19-121" v:mID="19" v:groupContext="shape" transform="translate(15.5765,1119.87) rotate(180)">
				<title>右括号</title>
				<v:userDefs>
					<v:ud v:nameU="visVersion" v:prompt="" v:val="VT0(15):26"/>
				</v:userDefs>
				<path d="M0 595.28 A20.8538 9.31906 -180 0 0 7.79 589.71 L7.79 568.17 L15.58 568.17 L7.79 568.17 L7.79 545.16 A20.8538
							 9.31906 -180 0 0 0 539.59" class="st7"/>
			</g>
			<g id="shape37-124" v:mID="37" v:groupContext="shape" transform="translate(18.6918,0)">
				<title>矩形.37</title>
				<desc>模型计算</desc>
				<v:userDefs>
					<v:ud v:nameU="visVersion" v:val="VT0(15):26"/>
				</v:userDefs>
				<v:textBlock v:margins="rect(4,4,4,4)" v:tabSpace="42.5197"/>
				<v:textRect cx="31.153" cy="583.593" width="62.31" height="23.3648"/>
				<rect x="0" y="571.911" width="62.3061" height="23.3648" class="st1"/>
				<text x="11.15" y="586.59" class="st2" v:langID="2052"><v:paragraph v:horizAlign="1"/><v:tabList/>模型计算</text>			</g>
			<g id="shape40-127" v:mID="40" v:groupContext="shape" transform="translate(85.6709,-14.9924)">
				<title>右括号.40</title>
				<v:userDefs>
					<v:ud v:nameU="visVersion" v:prompt="" v:val="VT0(15):26"/>
				</v:userDefs>
				<path d="M0 595.28 A20.8538 9.31906 -180 0 0 7.79 589.71 L7.79 568.17 L15.58 568.17 L7.79 568.17 L7.79 545.16 A20.8538
							 9.31906 -180 0 0 0 539.59" class="st7"/>
			</g>
		</g>
		<g id="shape55-130" v:mID="55" v:groupContext="shape" transform="translate(965.955,245.847) rotate(90) scale(-1,1)">
			<title>侧边大括号</title>
			<v:userDefs>
				<v:ud v:nameU="TxtW" v:val="VT0(0.55555555555556):29"/>
				<v:ud v:nameU="TxtA" v:val="VT0(1.5707963267949):37"/>
				<v:ud v:nameU="TxtAState" v:val="VT0(0):26"/>
				<v:ud v:nameU="TxtWState" v:val="VT0(0):26"/>
				<v:ud v:nameU="MaxRadius" v:val="VT0(0.19685039370079):24"/>
				<v:ud v:nameU="PosCH1" v:prompt="Constrains X postion of Control Handle #1" v:val="VT0(0):26"/>
				<v:ud v:nameU="PosCH2" v:prompt="Constrains Y postion of Control Handle #2" v:val="VT0(0):26"/>
				<v:ud v:nameU="Scale" v:val="VT0(1):26"/>
				<v:ud v:nameU="AntiScale" v:val="VT0(1):26"/>
				<v:ud v:nameU="visVersion" v:val="VT0(15):26"/>
				<v:ud v:nameU="TxtA" v:prompt="" v:val="VT0(-1.5707963267949):32"/>
				<v:ud v:nameU="MaxRadius" v:prompt="" v:val="VT0(0.22607585561704):1"/>
			</v:userDefs>
			<path d="M0 579 L0 587.41 A7.86601 7.86601 -180 0 0 7.87 595.28 L76 595.28 A7.86601 7.86601 0 0 1 83.87 603.14 A7.86601
						 7.86601 0 0 1 91.73 595.28 L154.91 595.28 A7.86601 7.86601 -180 0 0 162.77 587.41 L162.77 579" class="st7"/>
		</g>
		<g id="shape56-133" v:mID="56" v:groupContext="shape" transform="translate(1192.16,270.77) rotate(90)">
			<title>虚尾箭头.56</title>
			<v:userDefs>
				<v:ud v:nameU="visVersion" v:prompt="" v:val="VT0(15):26"/>
			</v:userDefs>
			<path d="M6 589.31 L34.67 589.31 L34.67 583.34 L56.16 595.28 L34.67 607.21 L34.67 601.24 L6 601.24 L6 589.31 ZM2.4 589.31
						 L4.8 589.31 L4.8 601.24 L2.4 601.24 L2.4 589.31 ZM0 589.31 L1.2 589.31 L1.2 601.24 L0 601.24 L0 589.31 Z"
					class="st3"/>
		</g>
		<g id="shape57-135" v:mID="57" v:groupContext="shape" transform="translate(1.61378,395.382) rotate(-90)">
			<title>工作表.57</title>
			<path d="M4.93 595.28 L5.28 595.28 L31.15 595.28" class="st5"/>
		</g>
		<g id="shape58-140" v:mID="58" v:groupContext="shape" transform="translate(1.61378,446.006) rotate(-90)">
			<title>工作表.58</title>
			<path d="M4.93 595.28 L5.29 595.28 L27.26 595.28" class="st5"/>
		</g>
		<g id="shape59-145" v:mID="59" v:groupContext="shape" transform="translate(1.61378,496.629) rotate(-90)">
			<title>工作表.59</title>
			<path d="M4.93 595.28 L5.29 595.28 L27.26 595.28" class="st5"/>
		</g>
		<g id="shape60-150" v:mID="60" v:groupContext="shape" transform="translate(503.43,1026.99) rotate(180)">
			<title>虚尾箭头.60</title>
			<v:userDefs>
				<v:ud v:nameU="visVersion" v:prompt="" v:val="VT0(15):26"/>
			</v:userDefs>
			<path d="M6 589.31 L41.64 589.31 L41.64 583.34 L63.13 595.28 L41.64 607.21 L41.64 601.24 L6 601.24 L6 589.31 ZM2.4 589.31
						 L4.8 589.31 L4.8 601.24 L2.4 601.24 L2.4 589.31 ZM0 589.31 L1.2 589.31 L1.2 601.24 L0 601.24 L0 589.31 Z"
					class="st3"/>
		</g>
		<g id="shape61-152" v:mID="61" v:groupContext="shape" transform="translate(169.833,-144.737)">
			<title>圆形.61</title>
			<desc>结束</desc>
			<v:userDefs>
				<v:ud v:nameU="visVersion" v:val="VT0(15):26"/>
			</v:userDefs>
			<v:textBlock v:margins="rect(4,4,4,4)" v:tabSpace="42.5197"/>
			<v:textRect cx="18.8216" cy="576.454" width="32.94" height="28.2324"/>
			<path d="M0 576.45 A18.8216 18.8216 0 0 1 37.64 576.45 A18.8216 18.8216 0 1 1 0 576.45 Z" class="st3"/>
			<text x="8.82" y="579.45" class="st8" v:langID="2052"><v:paragraph v:horizAlign="1"/><v:tabList/>结束</text>		</g>
		<g id="shape62-155" v:mID="62" v:groupContext="shape" transform="translate(-247.611,395.382) rotate(-90)">
			<title>工作表.62</title>
			<path d="M4.93 595.28 L5.28 595.28 L31.15 595.28" class="st5"/>
		</g>
		<g id="shape63-160" v:mID="63" v:groupContext="shape" transform="translate(-247.611,445.227) rotate(-90)">
			<title>工作表.63</title>
			<path d="M4.93 595.28 L5.29 595.28 L26.48 595.28" class="st5"/>
		</g>
		<g id="shape64-165" v:mID="64" v:groupContext="shape" transform="translate(-247.611,495.072) rotate(-90)">
			<title>工作表.64</title>
			<path d="M4.93 595.28 L5.29 595.28 L26.48 595.28" class="st5"/>
		</g>
		<g id="shape65-170" v:mID="65" v:groupContext="shape" transform="translate(285.359,1026.99) rotate(180)">
			<title>虚尾箭头.65</title>
			<v:userDefs>
				<v:ud v:nameU="visVersion" v:prompt="" v:val="VT0(15):26"/>
			</v:userDefs>
			<path d="M6 589.31 L41.64 589.31 L41.64 583.34 L63.13 595.28 L41.64 607.21 L41.64 601.24 L6 601.24 L6 589.31 ZM2.4 589.31
						 L4.8 589.31 L4.8 601.24 L2.4 601.24 L2.4 589.31 ZM0 589.31 L1.2 589.31 L1.2 601.24 L0 601.24 L0 589.31 Z"
					class="st3"/>
		</g>
		<g id="shape66-172" v:mID="66" v:groupContext="shape" transform="translate(291.59,-61.2627)">
			<title>工作表.66</title>
			<rect x="0" y="388.108" width="112.151" height="207.168" rx="8.50394" ry="8.50394" class="st9"/>
		</g>
		<g id="shape67-174" v:mID="67" v:groupContext="shape" transform="translate(540.814,-59.7051)">
			<title>工作表.67</title>
			<rect x="0" y="388.108" width="112.151" height="207.168" rx="8.50394" ry="8.50394" class="st9"/>
		</g>
		<g id="shape69-176" v:mID="69" v:groupContext="shape" transform="translate(389.722,-490.785)">
			<title>工作表.69</title>
			<rect x="0" y="553.998" width="425.239" height="41.2778" rx="8.50394" ry="8.50394" class="st9"/>
		</g>
		<g id="shape70-178" v:mID="70" v:groupContext="shape" transform="translate(389.722,-331.126)">
			<title>工作表.70</title>
			<rect x="0" y="553.998" width="425.239" height="41.2778" rx="8.50394" ry="8.50394" class="st9"/>
		</g>
	</g>
</svg>
