<?xml version="1.0" encoding="UTF-8" standalone="no"?>
<!DOCTYPE svg PUBLIC "-//W3C//DTD SVG 1.1//EN"
 "http://www.w3.org/Graphics/SVG/1.1/DTD/svg11.dtd">
<!-- Generated by graphviz version 2.38.0 (20140413.2041)
 -->
<!-- Title: qing Pages: 1 -->
<svg width="537pt" height="406pt"
 viewBox="0.00 0.00 537.00 406.00" xmlns="http://www.w3.org/2000/svg" xmlns:xlink="http://www.w3.org/1999/xlink">
<g id="graph0" class="graph" transform="scale(1 1) rotate(0) translate(4 402)">
<title>qing</title>
<!-- 显控台B -->
<g id="node1" class="node"><title>显控台B</title>
<image xlink:href="C:/719/2017_06_10_Total/image/pic/XIANKONGTAI.png" width="62px" height="86px" preserveAspectRatio="xMinYMin meet" x="0" y="-398"/>
<text text-anchor="middle" x="31" y="-315.4" font-family="FangSong" font-size="12.00">显控台B</text>
</g>
<!-- 服务器B -->
<g id="node2" class="node"><title>服务器B</title>
<image xlink:href="C:/719/2017_06_10_Total/image/pic/FUWUQI.png" width="62px" height="80px" preserveAspectRatio="xMinYMin meet" x="98" y="-395"/>
<text text-anchor="middle" x="129" y="-315.4" font-family="FangSong" font-size="12.00">服务器B</text>
</g>
<!-- 显控台B&#45;&gt;服务器B -->
<g id="edge1" class="edge"><title>显控台B&#45;&gt;服务器B</title>
<path fill="none" stroke="green" d="M62.1116,-355C70.2429,-355 79.1734,-355 87.7632,-355"/>
<polygon fill="green" stroke="green" points="87.9953,-358.5 97.9952,-355 87.9952,-351.5 87.9953,-358.5"/>
</g>
<!-- 控制器B -->
<g id="node3" class="node"><title>控制器B</title>
<image xlink:href="C:/719/2017_06_10_Total/image/pic/KONGZHIQI.png" width="62px" height="80px" preserveAspectRatio="xMinYMin meet" x="212.5" y="-395"/>
<text text-anchor="middle" x="243.5" y="-315.4" font-family="FangSong" font-size="12.00">控制器B</text>
</g>
<!-- 服务器B&#45;&gt;控制器B -->
<g id="edge2" class="edge"><title>服务器B&#45;&gt;控制器B</title>
<path fill="none" stroke="green" d="M160.148,-355C173.01,-355 188.213,-355 202.032,-355"/>
<polygon fill="green" stroke="green" points="202.269,-358.5 212.269,-355 202.269,-351.5 202.269,-358.5"/>
</g>
<!-- 数据采集箱B -->
<g id="node4" class="node"><title>数据采集箱B</title>
<image xlink:href="C:/719/2017_06_10_Total/image/pic/SHUJUCAIJIXIANG.png" width="80px" height="61px" preserveAspectRatio="xMinYMin meet" x="328.5" y="-281.5"/>
<text text-anchor="middle" x="368.5" y="-211.4" font-family="FangSong" font-size="12.00">数据采集箱B</text>
</g>
<!-- 控制器B&#45;&gt;数据采集箱B -->
<g id="edge3" class="edge"><title>控制器B&#45;&gt;数据采集箱B</title>
<path fill="none" stroke="green" d="M274.589,-329.559C287.913,-318.293 303.926,-304.753 318.876,-292.113"/>
<polygon fill="green" stroke="green" points="321.201,-294.73 326.577,-285.601 316.681,-289.385 321.201,-294.73"/>
</g>
<!-- 姿态控制器B -->
<g id="node5" class="node"><title>姿态控制器B</title>
<image xlink:href="C:/719/2017_06_10_Total/image/pic/ZITAIKONGZHIQI.png" width="80px" height="80px" preserveAspectRatio="xMinYMin meet" x="447.5" y="-291"/>
<text text-anchor="middle" x="487.5" y="-211.4" font-family="FangSong" font-size="12.00">姿态控制器B</text>
</g>
<!-- 数据采集箱B&#45;&gt;姿态控制器B -->
<g id="edge8" class="edge"><title>数据采集箱B&#45;&gt;姿态控制器B</title>
<path fill="none" stroke="green" d="M410.093,-251C418.351,-251 427.136,-251 435.698,-251"/>
<polygon fill="green" stroke="green" points="435.979,-254.5 445.979,-251 435.979,-247.5 435.979,-254.5"/>
</g>
<!-- 声呐B -->
<g id="node6" class="node"><title>声呐B</title>
<image xlink:href="C:/719/2017_06_10_Total/image/pic/SHENGNA.png" width="62px" height="58px" preserveAspectRatio="xMinYMin meet" x="212.5" y="-280"/>
<text text-anchor="middle" x="243.5" y="-211.4" font-family="FangSong" font-size="12.00">声呐B</text>
</g>
<!-- 声呐B&#45;&gt;数据采集箱B -->
<g id="edge4" class="edge"><title>声呐B&#45;&gt;数据采集箱B</title>
<path fill="none" stroke="green" d="M274.589,-245.103C287.18,-244.353 302.171,-244.098 316.398,-244.337"/>
<polygon fill="green" stroke="green" points="316.491,-247.84 326.577,-244.598 316.671,-240.842 316.491,-247.84"/>
</g>
<!-- 声呐B&#45;&gt;数据采集箱B -->
<g id="edge5" class="edge"><title>声呐B&#45;&gt;数据采集箱B</title>
<path fill="none" stroke="green" d="M274.589,-256.897C287.18,-257.647 302.171,-257.902 316.398,-257.663"/>
<polygon fill="green" stroke="green" points="316.671,-261.158 326.577,-257.402 316.491,-254.16 316.671,-261.158"/>
</g>
<!-- 多普勒传感器A -->
<g id="node7" class="node"><title>多普勒传感器A</title>
<image xlink:href="C:/719/2017_06_10_Total/image/pic/DUOPULECHUANGANQI.png" width="80px" height="60px" preserveAspectRatio="xMinYMin meet" x="203.5" y="-177"/>
<text text-anchor="middle" x="243.5" y="-107.4" font-family="FangSong" font-size="12.00">多普勒传感器A</text>
</g>
<!-- 多普勒传感器A&#45;&gt;数据采集箱B -->
<g id="edge6" class="edge"><title>多普勒传感器A&#45;&gt;数据采集箱B</title>
<path fill="none" stroke="green" d="M291.001,-186.318C300.249,-194.137 309.979,-202.364 319.282,-210.231"/>
<polygon fill="green" stroke="green" points="317.082,-212.953 326.978,-216.737 321.601,-207.608 317.082,-212.953"/>
</g>
<!-- 陀螺仪A -->
<g id="node8" class="node"><title>陀螺仪A</title>
<image xlink:href="C:/719/2017_06_10_Total/image/pic/TUOLUOYI.png" width="62px" height="60px" preserveAspectRatio="xMinYMin meet" x="212.5" y="-73"/>
<text text-anchor="middle" x="243.5" y="-3.4" font-family="FangSong" font-size="12.00">陀螺仪A</text>
</g>
<!-- 陀螺仪A&#45;&gt;数据采集箱B -->
<g id="edge7" class="edge"><title>陀螺仪A&#45;&gt;数据采集箱B</title>
<path fill="none" stroke="green" d="M274.728,-74.046C280.48,-80.6926 286.196,-87.8683 291,-95 312.915,-127.536 332.306,-167.273 346.082,-198.498"/>
<polygon fill="green" stroke="green" points="342.974,-200.126 350.174,-207.898 349.392,-197.332 342.974,-200.126"/>
</g>
</g>
</svg>
