<?xml version="1.0" encoding="UTF-8" standalone="no"?>
<!DOCTYPE svg PUBLIC "-//W3C//DTD SVG 1.1//EN"
 "http://www.w3.org/Graphics/SVG/1.1/DTD/svg11.dtd">
<!-- Generated by graphviz version 2.38.0 (20140413.2041)
 -->
<!-- Title: qing Pages: 1 -->
<svg width="576pt" height="224pt"
 viewBox="0.00 0.00 576.00 223.76" xmlns="http://www.w3.org/2000/svg" xmlns:xlink="http://www.w3.org/1999/xlink">
<g id="graph0" class="graph" transform="scale(0.880672 0.880672) rotate(0) translate(4 250.083)">
<title>qing</title>
<!-- 9 -->
<g id="node1" class="node"><title>9</title>
<ellipse fill="#2e8b57" stroke="#2e8b57" cx="41.7193" cy="-90.0416" rx="41.9398" ry="24.0833"/>
<text text-anchor="middle" x="41.7193" y="-93.4416" font-family="FangSong" font-size="12.00">9</text>
<text text-anchor="middle" x="41.7193" y="-80.4416" font-family="FangSong" font-size="12.00">显控台B</text>
</g>
<!-- 10 -->
<g id="node2" class="node"><title>10</title>
<ellipse fill="#2e8b57" stroke="#2e8b57" cx="161.158" cy="-90.0416" rx="41.9398" ry="24.0833"/>
<text text-anchor="middle" x="161.158" y="-93.4416" font-family="FangSong" font-size="12.00">10</text>
<text text-anchor="middle" x="161.158" y="-80.4416" font-family="FangSong" font-size="12.00">服务器B</text>
</g>
<!-- 9&#45;&#45;10 -->
<g id="edge1" class="edge"><title>9&#45;&#45;10</title>
<path fill="none" stroke="black" d="M83.464,-90.0416C94.9912,-90.0416 107.541,-90.0416 119.087,-90.0416"/>
</g>
<!-- 11 -->
<g id="node3" class="node"><title>11</title>
<ellipse fill="#2e8b57" stroke="#2e8b57" cx="280.597" cy="-123.042" rx="41.9398" ry="24.0833"/>
<text text-anchor="middle" x="280.597" y="-126.442" font-family="FangSong" font-size="12.00">11</text>
<text text-anchor="middle" x="280.597" y="-113.442" font-family="FangSong" font-size="12.00">控制器B</text>
</g>
<!-- 10&#45;&#45;11 -->
<g id="edge2" class="edge"><title>10&#45;&#45;11</title>
<path fill="none" stroke="black" d="M198.994,-100.392C212.986,-104.324 228.912,-108.799 242.891,-112.727"/>
</g>
<!-- 17 -->
<g id="node4" class="node"><title>17</title>
<ellipse fill="#2e8b57" stroke="#2e8b57" cx="280.597" cy="-57.0416" rx="41.9398" ry="24.0833"/>
<text text-anchor="middle" x="280.597" y="-60.4416" font-family="FangSong" font-size="12.00">17</text>
<text text-anchor="middle" x="280.597" y="-47.4416" font-family="FangSong" font-size="12.00">控制器A</text>
</g>
<!-- 10&#45;&#45;17 -->
<g id="edge3" class="edge"><title>10&#45;&#45;17</title>
<path fill="none" stroke="black" d="M198.994,-79.6908C212.986,-75.7592 228.912,-71.284 242.891,-67.3558"/>
</g>
<!-- 12 -->
<g id="node5" class="node"><title>12</title>
<ellipse fill="#2e8b57" stroke="#2e8b57" cx="417.006" cy="-123.042" rx="58.8803" ry="24.0833"/>
<text text-anchor="middle" x="417.006" y="-126.442" font-family="FangSong" font-size="12.00">12</text>
<text text-anchor="middle" x="417.006" y="-113.442" font-family="FangSong" font-size="12.00">数据采集箱B</text>
</g>
<!-- 11&#45;&#45;12 -->
<g id="edge4" class="edge"><title>11&#45;&#45;12</title>
<path fill="none" stroke="black" d="M322.654,-123.042C333.771,-123.042 346.019,-123.042 357.882,-123.042"/>
</g>
<!-- 13 -->
<g id="node6" class="node"><title>13</title>
<ellipse fill="#2e8b57" stroke="#2e8b57" cx="578.871" cy="-222.042" rx="58.8803" ry="24.0833"/>
<text text-anchor="middle" x="578.871" y="-225.442" font-family="FangSong" font-size="12.00">13</text>
<text text-anchor="middle" x="578.871" y="-212.442" font-family="FangSong" font-size="12.00">姿态控制器B</text>
</g>
<!-- 12&#45;&#45;13 -->
<g id="edge5" class="edge"><title>12&#45;&#45;13</title>
<path fill="none" stroke="black" d="M445.554,-144.11C463.839,-157.673 488.632,-175.275 511.696,-189.042 520.514,-194.306 530.284,-199.502 539.549,-204.16"/>
</g>
<!-- 14 -->
<g id="node7" class="node"><title>14</title>
<ellipse fill="#2e8b57" stroke="#2e8b57" cx="578.871" cy="-156.042" rx="33.4697" ry="24.0833"/>
<text text-anchor="middle" x="578.871" y="-159.442" font-family="FangSong" font-size="12.00">14</text>
<text text-anchor="middle" x="578.871" y="-146.442" font-family="FangSong" font-size="12.00">声呐B</text>
</g>
<!-- 12&#45;&#45;14 -->
<g id="edge6" class="edge"><title>12&#45;&#45;14</title>
<path fill="none" stroke="black" d="M469.909,-133.756C495.255,-138.988 524.905,-145.108 546.714,-149.61"/>
</g>
<!-- 15 -->
<g id="node8" class="node"><title>15</title>
<ellipse fill="#2e8b57" stroke="#2e8b57" cx="578.871" cy="-90.0416" rx="67.3507" ry="24.0833"/>
<text text-anchor="middle" x="578.871" y="-93.4416" font-family="FangSong" font-size="12.00">15</text>
<text text-anchor="middle" x="578.871" y="-80.4416" font-family="FangSong" font-size="12.00">多普勒传感器A</text>
</g>
<!-- 12&#45;&#45;15 -->
<g id="edge7" class="edge"><title>12&#45;&#45;15</title>
<path fill="none" stroke="black" d="M469.909,-112.327C486.047,-108.996 503.929,-105.305 520.421,-101.901"/>
</g>
<!-- 16 -->
<g id="node9" class="node"><title>16</title>
<ellipse fill="#2e8b57" stroke="#2e8b57" cx="578.871" cy="-24.0416" rx="41.9398" ry="24.0833"/>
<text text-anchor="middle" x="578.871" y="-27.4416" font-family="FangSong" font-size="12.00">16</text>
<text text-anchor="middle" x="578.871" y="-14.4416" font-family="FangSong" font-size="12.00">陀螺仪A</text>
</g>
<!-- 12&#45;&#45;16 -->
<g id="edge8" class="edge"><title>12&#45;&#45;16</title>
<path fill="none" stroke="black" d="M445.554,-101.973C463.839,-88.4098 488.632,-70.8086 511.696,-57.0416 522.499,-50.5932 534.728,-44.2458 545.709,-38.8671"/>
</g>
</g>
</svg>
