<?xml version="1.0" encoding="UTF-8" standalone="no"?>
<!DOCTYPE svg PUBLIC "-//W3C//DTD SVG 1.1//EN"
 "http://www.w3.org/Graphics/SVG/1.1/DTD/svg11.dtd">
<!-- Generated by graphviz version 2.38.0 (20140413.2041)
 -->
<!-- Title: qing Pages: 1 -->
<svg width="576pt" height="230pt"
 viewBox="0.00 0.00 576.00 229.72" xmlns="http://www.w3.org/2000/svg" xmlns:xlink="http://www.w3.org/1999/xlink">
<g id="graph0" class="graph" transform="scale(0.904132 0.904132) rotate(0) translate(4 250.083)">
<title>qing</title>
<!-- 1 -->
<g id="node1" class="node"><title>1</title>
<ellipse fill="#2e8b57" stroke="#2e8b57" cx="58.6899" cy="-222.042" rx="58.8803" ry="24.0833"/>
<text text-anchor="middle" x="58.6899" y="-225.442" font-family="FangSong" font-size="12.00">1</text>
<text text-anchor="middle" x="58.6899" y="-212.442" font-family="FangSong" font-size="12.00">湿度传感器A</text>
</g>
<!-- 5 -->
<g id="node2" class="node"><title>5</title>
<ellipse fill="#2e8b57" stroke="#2e8b57" cx="212.07" cy="-123.042" rx="58.8803" ry="24.0833"/>
<text text-anchor="middle" x="212.07" y="-126.442" font-family="FangSong" font-size="12.00">5</text>
<text text-anchor="middle" x="212.07" y="-113.442" font-family="FangSong" font-size="12.00">数据采集箱A</text>
</g>
<!-- 1&#45;&#45;5 -->
<g id="edge1" class="edge"><title>1&#45;&#45;5</title>
<path fill="none" stroke="black" d="M94.4768,-202.846C102.104,-198.443 110.078,-193.687 117.38,-189.042 139.874,-174.73 164.489,-157.317 182.842,-143.972"/>
</g>
<!-- 6 -->
<g id="node6" class="node"><title>6</title>
<ellipse fill="#2e8b57" stroke="#2e8b57" cx="348.479" cy="-123.042" rx="41.9398" ry="24.0833"/>
<text text-anchor="middle" x="348.479" y="-126.442" font-family="FangSong" font-size="12.00">6</text>
<text text-anchor="middle" x="348.479" y="-113.442" font-family="FangSong" font-size="12.00">服务器A</text>
</g>
<!-- 5&#45;&#45;6 -->
<g id="edge5" class="edge"><title>5&#45;&#45;6</title>
<path fill="none" stroke="black" d="M270.851,-123.042C282.805,-123.042 295.164,-123.042 306.375,-123.042"/>
</g>
<!-- 2 -->
<g id="node3" class="node"><title>2</title>
<ellipse fill="#2e8b57" stroke="#2e8b57" cx="58.6899" cy="-156.042" rx="58.8803" ry="24.0833"/>
<text text-anchor="middle" x="58.6899" y="-159.442" font-family="FangSong" font-size="12.00">2</text>
<text text-anchor="middle" x="58.6899" y="-146.442" font-family="FangSong" font-size="12.00">湿度传感器B</text>
</g>
<!-- 2&#45;&#45;5 -->
<g id="edge2" class="edge"><title>2&#45;&#45;5</title>
<path fill="none" stroke="black" d="M110.94,-144.869C126.723,-141.429 144.093,-137.642 159.872,-134.202"/>
</g>
<!-- 3 -->
<g id="node4" class="node"><title>3</title>
<ellipse fill="#2e8b57" stroke="#2e8b57" cx="58.6899" cy="-90.0416" rx="58.8803" ry="24.0833"/>
<text text-anchor="middle" x="58.6899" y="-93.4416" font-family="FangSong" font-size="12.00">3</text>
<text text-anchor="middle" x="58.6899" y="-80.4416" font-family="FangSong" font-size="12.00">温度传感器A</text>
</g>
<!-- 3&#45;&#45;5 -->
<g id="edge3" class="edge"><title>3&#45;&#45;5</title>
<path fill="none" stroke="black" d="M110.94,-101.214C126.723,-104.654 144.093,-108.441 159.872,-111.881"/>
</g>
<!-- 4 -->
<g id="node5" class="node"><title>4</title>
<ellipse fill="#2e8b57" stroke="#2e8b57" cx="58.6899" cy="-24.0416" rx="58.8803" ry="24.0833"/>
<text text-anchor="middle" x="58.6899" y="-27.4416" font-family="FangSong" font-size="12.00">4</text>
<text text-anchor="middle" x="58.6899" y="-14.4416" font-family="FangSong" font-size="12.00">温度传感器B</text>
</g>
<!-- 4&#45;&#45;5 -->
<g id="edge4" class="edge"><title>4&#45;&#45;5</title>
<path fill="none" stroke="black" d="M94.4768,-43.2373C102.104,-47.6402 110.078,-52.3962 117.38,-57.0416 139.874,-71.3535 164.489,-88.7658 182.842,-102.111"/>
</g>
<!-- 7 -->
<g id="node7" class="node"><title>7</title>
<ellipse fill="#2e8b57" stroke="#2e8b57" cx="467.917" cy="-123.042" rx="41.9398" ry="24.0833"/>
<text text-anchor="middle" x="467.917" y="-126.442" font-family="FangSong" font-size="12.00">7</text>
<text text-anchor="middle" x="467.917" y="-113.442" font-family="FangSong" font-size="12.00">交换机A</text>
</g>
<!-- 6&#45;&#45;7 -->
<g id="edge6" class="edge"><title>6&#45;&#45;7</title>
<path fill="none" stroke="black" d="M390.223,-123.042C401.751,-123.042 414.301,-123.042 425.847,-123.042"/>
</g>
<!-- 8 -->
<g id="node8" class="node"><title>8</title>
<ellipse fill="#2e8b57" stroke="#2e8b57" cx="587.356" cy="-123.042" rx="41.9398" ry="24.0833"/>
<text text-anchor="middle" x="587.356" y="-126.442" font-family="FangSong" font-size="12.00">8</text>
<text text-anchor="middle" x="587.356" y="-113.442" font-family="FangSong" font-size="12.00">显控台A</text>
</g>
<!-- 7&#45;&#45;8 -->
<g id="edge7" class="edge"><title>7&#45;&#45;8</title>
<path fill="none" stroke="black" d="M509.662,-123.042C521.189,-123.042 533.739,-123.042 545.285,-123.042"/>
</g>
</g>
</svg>
