<?xml version="1.0" encoding="UTF-8" standalone="no"?>
<!DOCTYPE svg PUBLIC "-//W3C//DTD SVG 1.1//EN"
 "http://www.w3.org/Graphics/SVG/1.1/DTD/svg11.dtd">
<!-- Generated by graphviz version 2.38.0 (20140413.2041)
 -->
<!-- Title: qing Pages: 1 -->
<svg width="1373pt" height="235pt"
 viewBox="0.00 0.00 1372.84 235.00" xmlns="http://www.w3.org/2000/svg" xmlns:xlink="http://www.w3.org/1999/xlink">
<g id="graph0" class="graph" transform="scale(1 1) rotate(0) translate(4 231)">
<title>qing</title>
<!-- start -->
<g id="node1" class="node"><title>start</title>
<polygon fill="lightblue" stroke="none" points="144,-172.5 90,-172.5 90,-133.5 144,-133.5 144,-172.5"/>
<image xlink:href="C:/719/2017_06_10_Total/image/workflowModelImage/start.png" width="50px" height="39px" preserveAspectRatio="xMinYMin meet" x="92" y="-172.5"/>
<text text-anchor="middle" x="117" y="-136.9" font-family="FangSong" font-size="12.00">start</text>
</g>
<!-- 7 -->
<g id="node2" class="node"><title>7</title>
<ellipse fill="lightblue" stroke="lightblue" cx="249.561" cy="-72" rx="69.6227" ry="18"/>
<text text-anchor="middle" x="249.561" y="-68.9" font-family="FangSong" font-size="12.00">下发姿态调整命令</text>
</g>
<!-- start&#45;&gt;7 -->
<g id="edge1" class="edge"><title>start&#45;&gt;7</title>
<path fill="none" stroke="black" stroke-width="2" d="M137.017,-133.374C148.642,-122.196 164.262,-108.559 180,-99 185.31,-95.7748 191.072,-92.8017 196.924,-90.101"/>
<polygon fill="black" stroke="black" stroke-width="2" points="198.373,-93.2875 206.143,-86.0842 195.577,-86.8703 198.373,-93.2875"/>
</g>
<!-- 11 -->
<g id="node15" class="node"><title>11</title>
<ellipse fill="lightblue" stroke="lightblue" cx="249.561" cy="-180" rx="54.5753" ry="18"/>
<text text-anchor="middle" x="249.561" y="-176.9" font-family="FangSong" font-size="12.00">获取潜深信息</text>
</g>
<!-- start&#45;&gt;11 -->
<g id="edge18" class="edge"><title>start&#45;&gt;11</title>
<path fill="none" stroke="black" stroke-width="2" d="M144.107,-158.399C158.104,-161.293 175.913,-164.976 192.845,-168.478"/>
<polygon fill="black" stroke="black" stroke-width="2" points="192.176,-171.913 202.677,-170.511 193.593,-165.059 192.176,-171.913"/>
</g>
<!-- 12 -->
<g id="node16" class="node"><title>12</title>
<ellipse fill="lightblue" stroke="lightblue" cx="249.561" cy="-126" rx="54.5753" ry="18"/>
<text text-anchor="middle" x="249.561" y="-122.9" font-family="FangSong" font-size="12.00">获取航速信息</text>
</g>
<!-- start&#45;&gt;12 -->
<g id="edge21" class="edge"><title>start&#45;&gt;12</title>
<path fill="none" stroke="black" stroke-width="2" d="M144.107,-147.601C158.104,-144.707 175.913,-141.024 192.845,-137.522"/>
<polygon fill="black" stroke="black" stroke-width="2" points="193.593,-140.941 202.677,-135.489 192.176,-134.087 193.593,-140.941"/>
</g>
<!-- and_task_8 -->
<g id="node5" class="node"><title>and_task_8</title>
<polygon fill="lightblue" stroke="none" points="409.123,-94 355.123,-94 355.123,-58 409.123,-58 409.123,-94"/>
<image xlink:href="C:/719/2017_06_10_Total/image/workflowModelImage/and.png" width="54px" height="36px" preserveAspectRatio="xMinYMin meet" x="355.123" y="-94"/>
<text text-anchor="middle" x="382.123" y="-72.9" font-family="FangSong" font-size="12.00">and</text>
</g>
<!-- 7&#45;&gt;and_task_8 -->
<g id="edge5" class="edge"><title>7&#45;&gt;and_task_8</title>
<path fill="none" stroke="black" stroke-width="2" d="M318.901,-74.0937C327.824,-74.3671 336.671,-74.6381 344.772,-74.8863"/>
<polygon fill="black" stroke="black" stroke-width="2" points="344.835,-78.3898 354.937,-75.1978 345.049,-71.3931 344.835,-78.3898"/>
</g>
<!-- and_device_7 -->
<g id="node3" class="node"><title>and_device_7</title>
<polygon fill="forestgreen" stroke="none" points="144,-59 90,-59 90,-23 144,-23 144,-59"/>
<image xlink:href="C:/719/2017_06_10_Total/image/workflowModelImage/and.png" width="54px" height="36px" preserveAspectRatio="xMinYMin meet" x="90" y="-59"/>
<text text-anchor="middle" x="117" y="-37.9" font-family="FangSong" font-size="12.00">and</text>
</g>
<!-- and_device_7&#45;&gt;7 -->
<g id="edge2" class="edge"><title>and_device_7&#45;&gt;7</title>
<path fill="none" stroke="forestgreen" stroke-dasharray="5,2" d="M144.107,-47.1988C156.682,-50.1846 172.335,-53.9011 187.664,-57.5408"/>
<polygon fill="forestgreen" stroke="forestgreen" points="187.117,-61.0081 197.655,-59.913 188.734,-54.1974 187.117,-61.0081"/>
</g>
<!-- Dev_9 -->
<g id="node4" class="node"><title>Dev_9</title>
<polygon fill="forestgreen" stroke="forestgreen" points="54,-59 0,-59 0,-23 54,-23 54,-59"/>
<text text-anchor="middle" x="27" y="-37.9" font-family="FangSong" font-size="12.00">Dev_9</text>
</g>
<!-- Dev_9&#45;&gt;and_device_7 -->
<g id="edge3" class="edge"><title>Dev_9&#45;&gt;and_device_7</title>
<path fill="none" stroke="forestgreen" stroke-dasharray="5,2" d="M54.4029,-41C62.3932,-41 71.3106,-41 79.8241,-41"/>
<polygon fill="forestgreen" stroke="forestgreen" points="79.919,-44.5001 89.919,-41 79.919,-37.5001 79.919,-44.5001"/>
</g>
<!-- 8 -->
<g id="node6" class="node"><title>8</title>
<ellipse fill="lightblue" stroke="lightblue" cx="499.91" cy="-76" rx="54.5753" ry="18"/>
<text text-anchor="middle" x="499.91" y="-72.9" font-family="FangSong" font-size="12.00">姿态命令处理</text>
</g>
<!-- and_task_8&#45;&gt;8 -->
<g id="edge4" class="edge"><title>and_task_8&#45;&gt;8</title>
<path fill="none" stroke="black" stroke-width="2" d="M409.397,-76C417.056,-76 425.781,-76 434.708,-76"/>
<polygon fill="black" stroke="black" stroke-width="2" points="434.827,-79.5001 444.827,-76 434.827,-72.5001 434.827,-79.5001"/>
</g>
<!-- and_task_9 -->
<g id="node9" class="node"><title>and_task_9</title>
<polygon fill="lightblue" stroke="none" points="644.697,-95 590.697,-95 590.697,-59 644.697,-59 644.697,-95"/>
<image xlink:href="C:/719/2017_06_10_Total/image/workflowModelImage/and.png" width="54px" height="36px" preserveAspectRatio="xMinYMin meet" x="590.697" y="-95"/>
<text text-anchor="middle" x="617.697" y="-73.9" font-family="FangSong" font-size="12.00">and</text>
</g>
<!-- 8&#45;&gt;and_task_9 -->
<g id="edge9" class="edge"><title>8&#45;&gt;and_task_9</title>
<path fill="none" stroke="black" stroke-width="2" d="M554.736,-76.4649C563.359,-76.5393 572.103,-76.6149 580.198,-76.6848"/>
<polygon fill="black" stroke="black" stroke-width="2" points="580.371,-80.1863 590.401,-76.7729 580.431,-73.1866 580.371,-80.1863"/>
</g>
<!-- and_device_8 -->
<g id="node7" class="node"><title>and_device_8</title>
<polygon fill="forestgreen" stroke="none" points="409.123,-40 355.123,-40 355.123,-4 409.123,-4 409.123,-40"/>
<image xlink:href="C:/719/2017_06_10_Total/image/workflowModelImage/and.png" width="54px" height="36px" preserveAspectRatio="xMinYMin meet" x="355.123" y="-40"/>
<text text-anchor="middle" x="382.123" y="-18.9" font-family="FangSong" font-size="12.00">and</text>
</g>
<!-- and_device_8&#45;&gt;8 -->
<g id="edge6" class="edge"><title>and_device_8&#45;&gt;8</title>
<path fill="none" stroke="forestgreen" stroke-dasharray="5,2" d="M409.397,-34.2534C423.787,-40.9646 441.937,-49.4293 458.126,-56.9794"/>
<polygon fill="forestgreen" stroke="forestgreen" points="456.845,-60.2442 467.388,-61.2989 459.804,-53.9002 456.845,-60.2442"/>
</g>
<!-- Dev_10 -->
<g id="node8" class="node"><title>Dev_10</title>
<polygon fill="forestgreen" stroke="forestgreen" points="276.561,-36 222.561,-36 222.561,-0 276.561,-0 276.561,-36"/>
<text text-anchor="middle" x="249.561" y="-14.9" font-family="FangSong" font-size="12.00">Dev_10</text>
</g>
<!-- Dev_10&#45;&gt;and_device_8 -->
<g id="edge7" class="edge"><title>Dev_10&#45;&gt;and_device_8</title>
<path fill="none" stroke="forestgreen" stroke-dasharray="5,2" d="M276.669,-18.7998C296.238,-19.3994 323.26,-20.2273 344.916,-20.8907"/>
<polygon fill="forestgreen" stroke="forestgreen" points="344.958,-24.3936 355.061,-21.2015 345.173,-17.3969 344.958,-24.3936"/>
</g>
<!-- 9 -->
<g id="node10" class="node"><title>9</title>
<ellipse fill="lightblue" stroke="lightblue" cx="742.871" cy="-78" rx="62.3491" ry="18"/>
<text text-anchor="middle" x="742.871" y="-74.9" font-family="FangSong" font-size="12.00">控制器操作信息</text>
</g>
<!-- and_task_9&#45;&gt;9 -->
<g id="edge8" class="edge"><title>and_task_9&#45;&gt;9</title>
<path fill="none" stroke="black" stroke-width="2" d="M644.819,-77.2121C652.546,-77.2748 661.404,-77.3467 670.555,-77.421"/>
<polygon fill="black" stroke="black" stroke-width="2" points="670.532,-80.9208 680.561,-77.5022 670.589,-73.9211 670.532,-80.9208"/>
</g>
<!-- and_task_10 -->
<g id="node13" class="node"><title>and_task_10</title>
<polygon fill="lightblue" stroke="none" points="895.046,-120 841.046,-120 841.046,-84 895.046,-84 895.046,-120"/>
<image xlink:href="C:/719/2017_06_10_Total/image/workflowModelImage/and.png" width="54px" height="36px" preserveAspectRatio="xMinYMin meet" x="841.046" y="-120"/>
<text text-anchor="middle" x="868.046" y="-98.9" font-family="FangSong" font-size="12.00">and</text>
</g>
<!-- 9&#45;&gt;and_task_10 -->
<g id="edge13" class="edge"><title>9&#45;&gt;and_task_10</title>
<path fill="none" stroke="black" stroke-width="2" d="M795.038,-87.9697C807.083,-90.3164 819.674,-92.7699 830.899,-94.9569"/>
<polygon fill="black" stroke="black" stroke-width="2" points="830.282,-98.4025 840.767,-96.8797 831.621,-91.5317 830.282,-98.4025"/>
</g>
<!-- and_device_9 -->
<g id="node11" class="node"><title>and_device_9</title>
<polygon fill="forestgreen" stroke="none" points="644.697,-40 590.697,-40 590.697,-4 644.697,-4 644.697,-40"/>
<image xlink:href="C:/719/2017_06_10_Total/image/workflowModelImage/and.png" width="54px" height="36px" preserveAspectRatio="xMinYMin meet" x="590.697" y="-40"/>
<text text-anchor="middle" x="617.697" y="-18.9" font-family="FangSong" font-size="12.00">and</text>
</g>
<!-- and_device_9&#45;&gt;9 -->
<g id="edge10" class="edge"><title>and_device_9&#45;&gt;9</title>
<path fill="none" stroke="forestgreen" stroke-dasharray="5,2" d="M644.884,-34.4035C655.915,-39.5878 668.905,-45.6407 680.697,-51 686.384,-53.5848 692.384,-56.2759 698.313,-58.9145"/>
<polygon fill="forestgreen" stroke="forestgreen" points="696.956,-62.1416 707.517,-62.9947 699.793,-55.7422 696.956,-62.1416"/>
</g>
<!-- Dev_11 -->
<g id="node12" class="node"><title>Dev_11</title>
<polygon fill="forestgreen" stroke="forestgreen" points="526.91,-40 472.91,-40 472.91,-4 526.91,-4 526.91,-40"/>
<text text-anchor="middle" x="499.91" y="-18.9" font-family="FangSong" font-size="12.00">Dev_11</text>
</g>
<!-- Dev_11&#45;&gt;and_device_9 -->
<g id="edge11" class="edge"><title>Dev_11&#45;&gt;and_device_9</title>
<path fill="none" stroke="forestgreen" stroke-dasharray="5,2" d="M527.184,-22C542.876,-22 563.04,-22 580.255,-22"/>
<polygon fill="forestgreen" stroke="forestgreen" points="580.527,-25.5001 590.527,-22 580.527,-18.5001 580.527,-25.5001"/>
</g>
<!-- 10 -->
<g id="node14" class="node"><title>10</title>
<ellipse fill="lightblue" stroke="lightblue" cx="1007.99" cy="-75" rx="76.8968" ry="18"/>
<text text-anchor="middle" x="1007.99" y="-71.9" font-family="FangSong" font-size="12.00">采集航速和潜深信息</text>
</g>
<!-- and_task_10&#45;&gt;10 -->
<g id="edge12" class="edge"><title>and_task_10&#45;&gt;10</title>
<path fill="none" stroke="black" stroke-width="2" d="M895.317,-96.858C907.694,-94.4356 923.094,-91.4213 938.465,-88.4128"/>
<polygon fill="black" stroke="black" stroke-width="2" points="939.388,-91.7987 948.53,-86.4429 938.044,-84.929 939.388,-91.7987"/>
</g>
<!-- and_task_13 -->
<g id="node24" class="node"><title>and_task_13</title>
<polygon fill="lightblue" stroke="none" points="1174.94,-93 1120.94,-93 1120.94,-57 1174.94,-57 1174.94,-93"/>
<image xlink:href="C:/719/2017_06_10_Total/image/workflowModelImage/and.png" width="54px" height="36px" preserveAspectRatio="xMinYMin meet" x="1120.94" y="-93"/>
<text text-anchor="middle" x="1147.94" y="-71.9" font-family="FangSong" font-size="12.00">and</text>
</g>
<!-- 10&#45;&gt;and_task_13 -->
<g id="edge27" class="edge"><title>10&#45;&gt;and_task_13</title>
<path fill="none" stroke="black" stroke-width="2" d="M1085.23,-75C1094.16,-75 1102.92,-75 1110.91,-75"/>
<polygon fill="black" stroke="black" stroke-width="2" points="1110.92,-78.5001 1120.92,-75 1110.92,-71.5001 1110.92,-78.5001"/>
</g>
<!-- 11&#45;&gt;and_task_10 -->
<g id="edge14" class="edge"><title>11&#45;&gt;and_task_10</title>
<path fill="none" stroke="black" stroke-width="2" d="M303.835,-177.292C354.114,-174.971 431.614,-172 498.91,-172 498.91,-172 498.91,-172 618.697,-172 703.5,-172 724.738,-158.242 805.046,-131 813.971,-127.972 823.317,-124.037 831.966,-120.047"/>
<polygon fill="black" stroke="black" stroke-width="2" points="833.499,-123.194 841.025,-115.737 830.492,-116.873 833.499,-123.194"/>
</g>
<!-- 12&#45;&gt;and_task_10 -->
<g id="edge15" class="edge"><title>12&#45;&gt;and_task_10</title>
<path fill="none" stroke="black" stroke-width="2" d="M304.821,-125.656C355.134,-125.367 432.079,-125 498.91,-125 498.91,-125 498.91,-125 618.697,-125 694.537,-125 782.852,-114.234 831.072,-107.433"/>
<polygon fill="black" stroke="black" stroke-width="2" points="831.616,-110.891 841.018,-106.006 830.622,-103.962 831.616,-110.891"/>
</g>
<!-- and_device_10 -->
<g id="node17" class="node"><title>and_device_10</title>
<polygon fill="forestgreen" stroke="none" points="895.046,-66 841.046,-66 841.046,-30 895.046,-30 895.046,-66"/>
<image xlink:href="C:/719/2017_06_10_Total/image/workflowModelImage/and.png" width="54px" height="36px" preserveAspectRatio="xMinYMin meet" x="841.046" y="-66"/>
<text text-anchor="middle" x="868.046" y="-44.9" font-family="FangSong" font-size="12.00">and</text>
</g>
<!-- and_device_10&#45;&gt;10 -->
<g id="edge16" class="edge"><title>and_device_10&#45;&gt;10</title>
<path fill="none" stroke="forestgreen" stroke-dasharray="5,2" d="M895.317,-53.142C907.694,-55.5644 923.094,-58.5787 938.465,-61.5872"/>
<polygon fill="forestgreen" stroke="forestgreen" points="938.044,-65.071 948.53,-63.5571 939.388,-58.2013 938.044,-65.071"/>
</g>
<!-- Dev_12 -->
<g id="node18" class="node"><title>Dev_12</title>
<polygon fill="forestgreen" stroke="forestgreen" points="769.871,-42 715.871,-42 715.871,-6 769.871,-6 769.871,-42"/>
<text text-anchor="middle" x="742.871" y="-20.9" font-family="FangSong" font-size="12.00">Dev_12</text>
</g>
<!-- Dev_12&#45;&gt;and_device_10 -->
<g id="edge17" class="edge"><title>Dev_12&#45;&gt;and_device_10</title>
<path fill="none" stroke="forestgreen" stroke-dasharray="5,2" d="M769.994,-29.0898C787.712,-32.5422 811.372,-37.1522 830.895,-40.9561"/>
<polygon fill="forestgreen" stroke="forestgreen" points="830.476,-44.4404 840.961,-42.9176 831.815,-37.5696 830.476,-44.4404"/>
</g>
<!-- and_device_11 -->
<g id="node19" class="node"><title>and_device_11</title>
<polygon fill="forestgreen" stroke="none" points="144,-227 90,-227 90,-191 144,-191 144,-227"/>
<image xlink:href="C:/719/2017_06_10_Total/image/workflowModelImage/and.png" width="54px" height="36px" preserveAspectRatio="xMinYMin meet" x="90" y="-227"/>
<text text-anchor="middle" x="117" y="-205.9" font-family="FangSong" font-size="12.00">and</text>
</g>
<!-- and_device_11&#45;&gt;11 -->
<g id="edge19" class="edge"><title>and_device_11&#45;&gt;11</title>
<path fill="none" stroke="forestgreen" stroke-dasharray="5,2" d="M144.107,-203.201C158.353,-200.037 176.548,-195.996 193.747,-192.175"/>
<polygon fill="forestgreen" stroke="forestgreen" points="194.718,-195.545 203.722,-189.96 193.201,-188.711 194.718,-195.545"/>
</g>
<!-- Dev_14 -->
<g id="node20" class="node"><title>Dev_14</title>
<polygon fill="forestgreen" stroke="forestgreen" points="54,-224 0,-224 0,-188 54,-188 54,-224"/>
<text text-anchor="middle" x="27" y="-202.9" font-family="FangSong" font-size="12.00">Dev_14</text>
</g>
<!-- Dev_14&#45;&gt;and_device_11 -->
<g id="edge20" class="edge"><title>Dev_14&#45;&gt;and_device_11</title>
<path fill="none" stroke="forestgreen" stroke-dasharray="5,2" d="M54.4029,-206.9C62.3932,-207.172 71.3106,-207.476 79.8241,-207.767"/>
<polygon fill="forestgreen" stroke="forestgreen" points="79.8055,-211.268 89.919,-208.111 80.0441,-204.272 79.8055,-211.268"/>
</g>
<!-- or_device_12 -->
<g id="node21" class="node"><title>or_device_12</title>
<polygon fill="forestgreen" stroke="none" points="144,-115 90,-115 90,-77 144,-77 144,-115"/>
<image xlink:href="C:/719/2017_06_10_Total/image/workflowModelImage/or.png" width="54px" height="38px" preserveAspectRatio="xMinYMin meet" x="90" y="-115"/>
<text text-anchor="middle" x="117" y="-92.9" font-family="FangSong" font-size="12.00">or</text>
</g>
<!-- Dev_14&#45;&gt;or_device_12 -->
<g id="edge23" class="edge"><title>Dev_14&#45;&gt;or_device_12</title>
<path fill="none" stroke="forestgreen" stroke-dasharray="5,2" d="M44.2451,-187.839C47.5451,-183.989 50.9404,-179.907 54,-176 71.1066,-154.156 72.7103,-146.699 90,-125 90.5715,-124.283 91.1554,-123.56 91.7488,-122.835"/>
<polygon fill="forestgreen" stroke="forestgreen" points="94.5348,-124.961 98.3374,-115.072 89.198,-120.431 94.5348,-124.961"/>
</g>
<!-- or_device_12&#45;&gt;12 -->
<g id="edge22" class="edge"><title>or_device_12&#45;&gt;12</title>
<path fill="none" stroke="forestgreen" stroke-dasharray="5,2" d="M144.107,-101.999C158.477,-105.301 176.866,-109.526 194.198,-113.508"/>
<polygon fill="forestgreen" stroke="forestgreen" points="193.712,-116.988 204.242,-115.816 195.28,-110.166 193.712,-116.988"/>
</g>
<!-- Dev_15 -->
<g id="node22" class="node"><title>Dev_15</title>
<polygon fill="forestgreen" stroke="forestgreen" points="54,-113 0,-113 0,-77 54,-77 54,-113"/>
<text text-anchor="middle" x="27" y="-91.9" font-family="FangSong" font-size="12.00">Dev_15</text>
</g>
<!-- Dev_15&#45;&gt;or_device_12 -->
<g id="edge24" class="edge"><title>Dev_15&#45;&gt;or_device_12</title>
<path fill="none" stroke="forestgreen" stroke-dasharray="5,2" d="M54.4029,-95.3C62.3932,-95.3908 71.3106,-95.4922 79.8241,-95.5889"/>
<polygon fill="forestgreen" stroke="forestgreen" points="79.8798,-99.0897 89.919,-95.7036 79.9594,-92.0901 79.8798,-99.0897"/>
</g>
<!-- Dev_16 -->
<g id="node23" class="node"><title>Dev_16</title>
<polygon fill="forestgreen" stroke="forestgreen" points="54,-167 0,-167 0,-131 54,-131 54,-167"/>
<text text-anchor="middle" x="27" y="-145.9" font-family="FangSong" font-size="12.00">Dev_16</text>
</g>
<!-- Dev_16&#45;&gt;or_device_12 -->
<g id="edge25" class="edge"><title>Dev_16&#45;&gt;or_device_12</title>
<path fill="none" stroke="forestgreen" stroke-dasharray="5,2" d="M54.4029,-133.098C62.8323,-128.021 72.2933,-122.323 81.2235,-116.945"/>
<polygon fill="forestgreen" stroke="forestgreen" points="83.1584,-119.865 89.919,-111.708 79.5469,-113.869 83.1584,-119.865"/>
</g>
<!-- 13 -->
<g id="node25" class="node"><title>13</title>
<ellipse fill="lightblue" stroke="lightblue" cx="1287.89" cy="-48" rx="76.8968" ry="18"/>
<text text-anchor="middle" x="1287.89" y="-44.9" font-family="FangSong" font-size="12.00">姿态调整控制器动作</text>
</g>
<!-- and_task_13&#45;&gt;13 -->
<g id="edge26" class="edge"><title>and_task_13&#45;&gt;13</title>
<path fill="none" stroke="black" stroke-width="2" d="M1175.21,-69.858C1187.59,-67.4356 1202.99,-64.4213 1218.36,-61.4128"/>
<polygon fill="black" stroke="black" stroke-width="2" points="1219.29,-64.7987 1228.43,-59.4429 1217.94,-57.929 1219.29,-64.7987"/>
</g>
<!-- and_device_13 -->
<g id="node26" class="node"><title>and_device_13</title>
<polygon fill="forestgreen" stroke="none" points="1174.94,-39 1120.94,-39 1120.94,-3 1174.94,-3 1174.94,-39"/>
<image xlink:href="C:/719/2017_06_10_Total/image/workflowModelImage/and.png" width="54px" height="36px" preserveAspectRatio="xMinYMin meet" x="1120.94" y="-39"/>
<text text-anchor="middle" x="1147.94" y="-17.9" font-family="FangSong" font-size="12.00">and</text>
</g>
<!-- and_device_13&#45;&gt;13 -->
<g id="edge28" class="edge"><title>and_device_13&#45;&gt;13</title>
<path fill="none" stroke="forestgreen" stroke-dasharray="5,2" d="M1175.21,-26.142C1187.59,-28.5644 1202.99,-31.5787 1218.36,-34.5872"/>
<polygon fill="forestgreen" stroke="forestgreen" points="1217.94,-38.071 1228.43,-36.5571 1219.29,-31.2013 1217.94,-38.071"/>
</g>
<!-- Dev_13 -->
<g id="node27" class="node"><title>Dev_13</title>
<polygon fill="forestgreen" stroke="forestgreen" points="1034.99,-39 980.994,-39 980.994,-3 1034.99,-3 1034.99,-39"/>
<text text-anchor="middle" x="1007.99" y="-17.9" font-family="FangSong" font-size="12.00">Dev_13</text>
</g>
<!-- Dev_13&#45;&gt;and_device_13 -->
<g id="edge29" class="edge"><title>Dev_13&#45;&gt;and_device_13</title>
<path fill="none" stroke="forestgreen" stroke-dasharray="5,2" d="M1035.27,-21C1056.65,-21 1087.06,-21 1110.74,-21"/>
<polygon fill="forestgreen" stroke="forestgreen" points="1110.77,-24.5001 1120.77,-21 1110.77,-17.5001 1110.77,-24.5001"/>
</g>
</g>
</svg>
